<svg xmlns="http://www.w3.org/2000/svg" viewBox="0 0 750 500"><g id="freepik--background-complete--inject-82"><path d="M566.09,75.66s-8.67-5.62-19,15.07-14.21,32.6-14.21,32.6-2.74,4.34-5.73,1.54S520,114.11,515,115.59c-5.21,1.54-6.88,7.39-5.81,15.95s2.71,27.41,2.86,29.12-.8,4.15-3.14,2.57-15.86-16.38-22.5-9.55.26,30.2,1,32.77.21,3.68-1,4.32-5.29-4.75-9.31-8.81-9.38-8-12.88-3.78-4.49,21.85,12.48,50.26l8.72,12.65,15.4-1c32.84-4.12,46.09-15.72,47.3-21.1s-5.25-7.16-10.92-7.83-12.43-.56-12.67-1.91.33-2.43,2.79-3.46,25.12-10,26.42-19.41-18.69-11-21.37-11.86-1.32-3.13.09-4,17.3-11.24,24.71-15.67,11-9.34,9-14.4c-1.92-4.87-10.75-3.22-14.79-3.86S549,131.1,549,131.1s7-10.39,17-31.27-.08-24.27-.08-24.27" style="fill:#ebebeb"></path><path d="M556.8,94.17a4.57,4.57,0,0,1-.18.45l-.59,1.3-2.31,5c-2,4.3-5,10.51-8.66,18.16-7.36,15.3-17.72,36.35-29.23,59.57s-21.92,44.25-29.37,59.51c-3.71,7.61-6.72,13.79-8.8,18.08-1,2.11-1.85,3.77-2.4,4.91-.28.54-.49,1-.64,1.27l-.23.43a4.57,4.57,0,0,1,.18-.45l.59-1.29,2.31-5c2-4.3,5-10.5,8.66-18.15,7.36-15.31,17.72-36.36,29.23-59.58s21.92-44.24,29.37-59.5l8.81-18.09c1-2.11,1.84-3.76,2.39-4.91.28-.54.49-1,.64-1.27Z" style="fill:#e0e0e0"></path><path d="M520.34,127a4.55,4.55,0,0,1,.4,1c.24.68.54,1.66.9,2.89.72,2.45,1.63,5.86,2.56,9.64s1.7,7.09,2.33,9.69c.28,1.15.52,2.13.72,2.93a5.2,5.2,0,0,1,.22,1.09,4.81,4.81,0,0,1-.41-1c-.23-.67-.54-1.66-.88-2.89-.7-2.46-1.56-5.88-2.49-9.66s-1.76-7.07-2.4-9.67c-.29-1.15-.54-2.12-.74-2.93A4.71,4.71,0,0,1,520.34,127Z" style="fill:#e0e0e0"></path><path d="M528.88,154.51c0-.14,6.91-2.32,15.51-4.87s15.62-4.51,15.67-4.37-6.91,2.32-15.52,4.87S528.92,154.65,528.88,154.51Z" style="fill:#e0e0e0"></path><path d="M509.59,189.37a4.52,4.52,0,0,1,1.14-.07l3.08,0c2.6,0,6.2-.06,10.16-.24s7.55-.47,10.14-.69l3.08-.26a5.11,5.11,0,0,1,1.13,0,4.52,4.52,0,0,1-1.11.24c-.72.12-1.76.27-3.06.43-2.59.31-6.18.66-10.16.84s-7.58.17-10.18.09c-1.31,0-2.36-.09-3.09-.14A5.24,5.24,0,0,1,509.59,189.37Z" style="fill:#e0e0e0"></path><path d="M496.38,166.16s.25.28.62.85.88,1.39,1.51,2.42c1.26,2,3,4.9,4.82,8.07s3.52,6.05,4.7,8.15l1.37,2.5a4.63,4.63,0,0,1,.44.95,3.9,3.9,0,0,1-.62-.85c-.37-.56-.88-1.39-1.51-2.41-1.26-2.05-3-4.91-4.82-8.08s-3.52-6-4.69-8.15c-.59-1.05-1.06-1.9-1.37-2.5A4,4,0,0,1,496.38,166.16Z" style="fill:#e0e0e0"></path><path d="M475.45,194.77a6.76,6.76,0,0,1,.77,1.09l1.95,3.09c1.63,2.63,3.84,6.27,6.26,10.3s4.59,7.71,6.13,10.38c.72,1.28,1.33,2.34,1.81,3.18a7.39,7.39,0,0,1,.6,1.2,6.24,6.24,0,0,1-.78-1.1l-1.95-3.09c-1.62-2.62-3.84-6.26-6.26-10.3s-4.58-7.71-6.13-10.38l-1.8-3.17A6.45,6.45,0,0,1,475.45,194.77Z" style="fill:#e0e0e0"></path><path d="M492.75,223.19a9.28,9.28,0,0,1,1.43-.12l3.91-.17c3.3-.14,7.85-.35,12.88-.72s9.56-.82,12.85-1.16l3.89-.41a6.69,6.69,0,0,1,1.43-.08,8.78,8.78,0,0,1-1.41.29c-.91.15-2.23.35-3.87.56-3.28.44-7.82,1-12.85,1.32s-9.61.52-12.91.57c-1.66,0-3,0-3.92,0A6.49,6.49,0,0,1,492.75,223.19Z" style="fill:#e0e0e0"></path><path d="M527.77,155.67a5.1,5.1,0,0,1,2.24-.26h.76l-.25.25c0-.87.13-1.49.25-1.49s.21.62.24,1.49v.24h-.25l-.76,0A5.1,5.1,0,0,1,527.77,155.67Z" style="fill:#e0e0e0"></path><path d="M521.77,155.67c0-.14.67-.26,1.5-.26s1.5.12,1.5.26-.67.26-1.5.26S521.77,155.81,521.77,155.67Z" style="fill:#e0e0e0"></path><path d="M515.77,155.67c0-.14.67-.26,1.5-.26s1.5.12,1.5.26-.67.26-1.5.26S515.77,155.81,515.77,155.67Z" style="fill:#e0e0e0"></path><path d="M509.77,155.67c0-.14.67-.26,1.5-.26s1.5.12,1.5.26-.67.26-1.5.26S509.77,155.81,509.77,155.67Z" style="fill:#e0e0e0"></path><path d="M503.77,155.67c0-.14.67-.26,1.5-.26s1.5.12,1.5.26-.67.26-1.5.26S503.77,155.81,503.77,155.67Z" style="fill:#e0e0e0"></path><path d="M497.77,155.67c0-.14.67-.26,1.5-.26s1.5.12,1.5.26-.67.26-1.5.26S497.77,155.81,497.77,155.67Z" style="fill:#e0e0e0"></path><path d="M491.77,155.67c0-.14.67-.26,1.5-.26s1.5.12,1.5.26-.67.26-1.5.26S491.77,155.81,491.77,155.67Z" style="fill:#e0e0e0"></path><path d="M485.77,155.67c0-.14.67-.26,1.5-.26s1.5.12,1.5.26-.67.26-1.5.26S485.77,155.81,485.77,155.67Z" style="fill:#e0e0e0"></path><path d="M479.77,155.67c0-.14.67-.26,1.5-.26s1.5.12,1.5.26-.67.26-1.5.26S479.77,155.81,479.77,155.67Z" style="fill:#e0e0e0"></path><path d="M473.77,155.67c0-.14.67-.26,1.5-.26s1.5.12,1.5.26-.67.26-1.5.26S473.77,155.81,473.77,155.67Z" style="fill:#e0e0e0"></path><path d="M467.77,155.67c0-.14.67-.26,1.5-.26s1.5.12,1.5.26-.67.26-1.5.26S467.77,155.81,467.77,155.67Z" style="fill:#e0e0e0"></path><path d="M461.77,155.67c0-.14.67-.26,1.5-.26s1.5.12,1.5.26-.67.26-1.5.26S461.77,155.81,461.77,155.67Z" style="fill:#e0e0e0"></path><path d="M455.77,155.67c0-.14.67-.26,1.5-.26s1.5.12,1.5.26-.67.26-1.5.26S455.77,155.81,455.77,155.67Z" style="fill:#e0e0e0"></path><path d="M449.77,155.67c0-.14.67-.26,1.5-.26s1.5.12,1.5.26-.67.26-1.5.26S449.77,155.81,449.77,155.67Z" style="fill:#e0e0e0"></path><path d="M443.77,155.67c0-.14.67-.26,1.5-.26s1.5.12,1.5.26-.67.26-1.5.26S443.77,155.81,443.77,155.67Z" style="fill:#e0e0e0"></path><path d="M437.77,155.67c0-.14.67-.26,1.5-.26s1.5.12,1.5.26-.67.26-1.5.26S437.77,155.81,437.77,155.67Z" style="fill:#e0e0e0"></path><path d="M431.77,155.67c0-.14.67-.26,1.5-.26s1.5.12,1.5.26-.67.26-1.5.26S431.77,155.81,431.77,155.67Z" style="fill:#e0e0e0"></path><path d="M425.77,155.67c0-.14.67-.26,1.5-.26s1.5.12,1.5.26-.67.26-1.5.26S425.77,155.81,425.77,155.67Z" style="fill:#e0e0e0"></path><path d="M423.89,151.54c.15,0,.26.67.26,1.5s-.11,1.5-.26,1.5-.26-.67-.26-1.5S423.75,151.54,423.89,151.54Z" style="fill:#e0e0e0"></path><path d="M423.89,145.54c.15,0,.26.67.26,1.5s-.11,1.5-.26,1.5-.26-.67-.26-1.5S423.75,145.54,423.89,145.54Z" style="fill:#e0e0e0"></path><path d="M423.89,139.54c.15,0,.26.67.26,1.5s-.11,1.5-.26,1.5-.26-.67-.26-1.5S423.75,139.54,423.89,139.54Z" style="fill:#e0e0e0"></path><path d="M423.89,133.54c.15,0,.26.67.26,1.5s-.11,1.5-.26,1.5-.26-.67-.26-1.5S423.75,133.54,423.89,133.54Z" style="fill:#e0e0e0"></path><path d="M423.89,127.54c.15,0,.26.67.26,1.5s-.11,1.5-.26,1.5-.26-.67-.26-1.5S423.75,127.54,423.89,127.54Z" style="fill:#e0e0e0"></path><path d="M423.89,121.54c.15,0,.26.67.26,1.5s-.11,1.5-.26,1.5-.26-.67-.26-1.5S423.75,121.54,423.89,121.54Z" style="fill:#e0e0e0"></path><path d="M423.89,115.54c.15,0,.26.67.26,1.5s-.11,1.5-.26,1.5-.26-.67-.26-1.5S423.75,115.54,423.89,115.54Z" style="fill:#e0e0e0"></path><path d="M423.89,109.54c.15,0,.26.67.26,1.5s-.11,1.5-.26,1.5-.26-.67-.26-1.5S423.75,109.54,423.89,109.54Z" style="fill:#e0e0e0"></path><path d="M423.89,103.54c.15,0,.26.67.26,1.5s-.11,1.5-.26,1.5-.26-.67-.26-1.5S423.75,103.54,423.89,103.54Z" style="fill:#e0e0e0"></path><path d="M423.89,97.54c.15,0,.26.67.26,1.5s-.11,1.5-.26,1.5-.26-.67-.26-1.5S423.75,97.54,423.89,97.54Z" style="fill:#e0e0e0"></path><path d="M423.89,91.54c.15,0,.26.67.26,1.5s-.11,1.5-.26,1.5-.26-.67-.26-1.5S423.75,91.54,423.89,91.54Z" style="fill:#e0e0e0"></path><path d="M423.89,85.54c.15,0,.26.67.26,1.5s-.11,1.5-.26,1.5-.26-.67-.26-1.5S423.75,85.54,423.89,85.54Z" style="fill:#e0e0e0"></path><path d="M423.89,79.54c.15,0,.26.67.26,1.5s-.11,1.5-.26,1.5-.26-.67-.26-1.5S423.75,79.54,423.89,79.54Z" style="fill:#e0e0e0"></path><path d="M423.89,73.54c.15,0,.26.67.26,1.5s-.11,1.5-.26,1.5-.26-.67-.26-1.5S423.75,73.54,423.89,73.54Z" style="fill:#e0e0e0"></path><path d="M423.89,67.54c.15,0,.26.67.26,1.5s-.11,1.5-.26,1.5-.26-.67-.26-1.5S423.75,67.54,423.89,67.54Z" style="fill:#e0e0e0"></path><path d="M423.89,61.54c.15,0,.26.67.26,1.5s-.11,1.5-.26,1.5-.26-.67-.26-1.5S423.75,61.54,423.89,61.54Z" style="fill:#e0e0e0"></path><path d="M423.89,55.54c.15,0,.26.67.26,1.5s-.11,1.5-.26,1.5-.26-.67-.26-1.5S423.75,55.54,423.89,55.54Z" style="fill:#e0e0e0"></path><path d="M423.89,49.54c.15,0,.26.67.26,1.5s-.11,1.5-.26,1.5-.26-.67-.26-1.5S423.75,49.54,423.89,49.54Z" style="fill:#e0e0e0"></path><path d="M429.15,48.8c0,.14-.67.26-1.5.26s-1.5-.12-1.5-.26.67-.26,1.5-.26S429.15,48.65,429.15,48.8Z" style="fill:#e0e0e0"></path><path d="M435.15,48.8c0,.14-.67.26-1.5.26s-1.5-.12-1.5-.26.67-.26,1.5-.26S435.15,48.65,435.15,48.8Z" style="fill:#e0e0e0"></path><path d="M441.15,48.8c0,.14-.67.26-1.5.26s-1.5-.12-1.5-.26.67-.26,1.5-.26S441.15,48.65,441.15,48.8Z" style="fill:#e0e0e0"></path><path d="M447.15,48.8c0,.14-.67.26-1.5.26s-1.5-.12-1.5-.26.67-.26,1.5-.26S447.15,48.65,447.15,48.8Z" style="fill:#e0e0e0"></path><path d="M453.15,48.8c0,.14-.67.26-1.5.26s-1.5-.12-1.5-.26.67-.26,1.5-.26S453.15,48.65,453.15,48.8Z" style="fill:#e0e0e0"></path><path d="M459.15,48.8c0,.14-.67.26-1.5.26s-1.5-.12-1.5-.26.67-.26,1.5-.26S459.15,48.65,459.15,48.8Z" style="fill:#e0e0e0"></path><path d="M465.15,48.8c0,.14-.67.26-1.5.26s-1.5-.12-1.5-.26.67-.26,1.5-.26S465.15,48.65,465.15,48.8Z" style="fill:#e0e0e0"></path><path d="M471.15,48.8c0,.14-.67.26-1.5.26s-1.5-.12-1.5-.26.67-.26,1.5-.26S471.15,48.65,471.15,48.8Z" style="fill:#e0e0e0"></path><path d="M477.15,48.8c0,.14-.67.26-1.5.26s-1.5-.12-1.5-.26.67-.26,1.5-.26S477.15,48.65,477.15,48.8Z" style="fill:#e0e0e0"></path><path d="M483.15,48.8c0,.14-.67.26-1.5.26s-1.5-.12-1.5-.26.67-.26,1.5-.26S483.15,48.65,483.15,48.8Z" style="fill:#e0e0e0"></path><path d="M489.15,48.8c0,.14-.67.26-1.5.26s-1.5-.12-1.5-.26.67-.26,1.5-.26S489.15,48.65,489.15,48.8Z" style="fill:#e0e0e0"></path><path d="M495.15,48.8c0,.14-.67.26-1.5.26s-1.5-.12-1.5-.26.67-.26,1.5-.26S495.15,48.65,495.15,48.8Z" style="fill:#e0e0e0"></path><path d="M501.15,48.8c0,.14-.67.26-1.5.26s-1.5-.12-1.5-.26.67-.26,1.5-.26S501.15,48.65,501.15,48.8Z" style="fill:#e0e0e0"></path><path d="M507.15,48.8c0,.14-.67.26-1.5.26s-1.5-.12-1.5-.26.67-.26,1.5-.26S507.15,48.65,507.15,48.8Z" style="fill:#e0e0e0"></path><path d="M513.15,48.8c0,.14-.67.26-1.5.26s-1.5-.12-1.5-.26.67-.26,1.5-.26S513.15,48.65,513.15,48.8Z" style="fill:#e0e0e0"></path><path d="M519.15,48.8c0,.14-.67.26-1.5.26s-1.5-.12-1.5-.26.67-.26,1.5-.26S519.15,48.65,519.15,48.8Z" style="fill:#e0e0e0"></path><path d="M525.15,48.8c0,.14-.67.26-1.5.26s-1.5-.12-1.5-.26.67-.26,1.5-.26S525.15,48.65,525.15,48.8Z" style="fill:#e0e0e0"></path><path d="M530.77,49.18c-.07,0-.13-.14-.18-.38l.18.17a6.47,6.47,0,0,1-1.12.09c-.83,0-1.5-.12-1.5-.26s.67-.26,1.5-.26a6.62,6.62,0,0,1,1.12.08l.2,0,0,.14C530.89,49,530.83,49.18,530.77,49.18Z" style="fill:#e0e0e0"></path><path d="M530.77,55.18c-.15,0-.26-.67-.26-1.5s.11-1.5.26-1.5.26.67.26,1.5S530.91,55.18,530.77,55.18Z" style="fill:#e0e0e0"></path><path d="M530.77,61.18c-.15,0-.26-.67-.26-1.5s.11-1.5.26-1.5.26.67.26,1.5S530.91,61.18,530.77,61.18Z" style="fill:#e0e0e0"></path><path d="M530.77,67.18c-.15,0-.26-.67-.26-1.5s.11-1.5.26-1.5.26.67.26,1.5S530.91,67.18,530.77,67.18Z" style="fill:#e0e0e0"></path><path d="M530.77,73.18c-.15,0-.26-.67-.26-1.5s.11-1.5.26-1.5.26.67.26,1.5S530.91,73.18,530.77,73.18Z" style="fill:#e0e0e0"></path><path d="M530.77,79.18c-.15,0-.26-.67-.26-1.5s.11-1.5.26-1.5.26.67.26,1.5S530.91,79.18,530.77,79.18Z" style="fill:#e0e0e0"></path><path d="M530.77,85.18c-.15,0-.26-.67-.26-1.5s.11-1.5.26-1.5.26.67.26,1.5S530.91,85.18,530.77,85.18Z" style="fill:#e0e0e0"></path><path d="M530.77,91.18c-.15,0-.26-.67-.26-1.5s.11-1.5.26-1.5.26.67.26,1.5S530.91,91.18,530.77,91.18Z" style="fill:#e0e0e0"></path><path d="M530.77,97.18c-.15,0-.26-.67-.26-1.5s.11-1.5.26-1.5.26.67.26,1.5S530.91,97.18,530.77,97.18Z" style="fill:#e0e0e0"></path><path d="M530.77,103.18c-.15,0-.26-.67-.26-1.5s.11-1.5.26-1.5.26.67.26,1.5S530.91,103.18,530.77,103.18Z" style="fill:#e0e0e0"></path><path d="M530.77,109.18c-.15,0-.26-.67-.26-1.5s.11-1.5.26-1.5.26.67.26,1.5S530.91,109.18,530.77,109.18Z" style="fill:#e0e0e0"></path><path d="M530.77,115.18c-.15,0-.26-.67-.26-1.5s.11-1.5.26-1.5.26.67.26,1.5S530.91,115.18,530.77,115.18Z" style="fill:#e0e0e0"></path><path d="M530.77,121.18c-.15,0-.26-.67-.26-1.5s.11-1.5.26-1.5.26.67.26,1.5S530.91,121.18,530.77,121.18Z" style="fill:#e0e0e0"></path><path d="M530.77,127.18c-.15,0-.26-.67-.26-1.5s.11-1.5.26-1.5.26.67.26,1.5S530.91,127.18,530.77,127.18Z" style="fill:#e0e0e0"></path><path d="M530.77,133.18c-.15,0-.26-.67-.26-1.5s.11-1.5.26-1.5.26.67.26,1.5S530.91,133.18,530.77,133.18Z" style="fill:#e0e0e0"></path><path d="M530.77,139.18c-.15,0-.26-.67-.26-1.5s.11-1.5.26-1.5.26.67.26,1.5S530.91,139.18,530.77,139.18Z" style="fill:#e0e0e0"></path><path d="M530.77,145.18c-.15,0-.26-.67-.26-1.5s.11-1.5.26-1.5.26.67.26,1.5S530.91,145.18,530.77,145.18Z" style="fill:#e0e0e0"></path><path d="M530.77,151.18c-.15,0-.26-.67-.26-1.5s.11-1.5.26-1.5.26.67.26,1.5S530.91,151.18,530.77,151.18Z" style="fill:#e0e0e0"></path><rect x="526.81" y="150.63" width="7.92" height="7.92" style="fill:#e0e0e0"></rect><rect x="419.94" y="151.71" width="7.92" height="7.92" style="fill:#e0e0e0"></rect><rect x="526.81" y="44.07" width="7.92" height="7.92" style="fill:#e0e0e0"></rect><rect x="419.94" y="44.84" width="7.92" height="7.92" style="fill:#e0e0e0"></rect><path d="M155.26,106.5a12.77,12.77,0,0,1,2.41-2.46l-.58-3.14L162,98.83l1.87,2.59a12.84,12.84,0,0,1,3.45,0l1.81-2.63,4.9,2-.5,3.15a13.38,13.38,0,0,1,2.46,2.41l3.14-.57,2.07,4.86-2.58,1.87a12.85,12.85,0,0,1,0,3.45l2.63,1.81-2,4.9-3.15-.5a13.07,13.07,0,0,1-2.41,2.46l.57,3.14-4.86,2.07-1.87-2.59a12.77,12.77,0,0,1-3.44,0l-1.82,2.63-4.9-2,.51-3.15a13.12,13.12,0,0,1-2.47-2.41l-3.14.57L150.21,118l2.59-1.87a12.78,12.78,0,0,1,0-3.44l-2.63-1.82,2-4.9,3.16.5Zm5.25,5.46a5.67,5.67,0,1,0,7.37-3.14A5.68,5.68,0,0,0,160.51,112Z" style="fill:#f5f5f5;fill-rule:evenodd"></path><path d="M189.35,139.61A45.48,45.48,0,0,1,197.8,131l-2-11,17.05-7.27,6.56,9.07a45.69,45.69,0,0,1,12.09-.13l6.37-9.21,17.19,6.91-1.77,11a45.53,45.53,0,0,1,8.63,8.46l11-2,7.28,17-9.08,6.56a45.62,45.62,0,0,1,.13,12.08l9.21,6.37-6.91,17.2-11.05-1.77a45.53,45.53,0,0,1-8.46,8.63l2,11L239,221.24l-6.56-9.08a45.2,45.2,0,0,1-12.08.14L214,221.51l-17.2-6.91,1.78-11.06a45.54,45.54,0,0,1-8.64-8.45l-11,2-7.27-17,9.08-6.56a45.27,45.27,0,0,1-.14-12.09L171.38,155l6.91-17.2,11.06,1.77Zm18.44,19.16a19.88,19.88,0,1,0,25.86-11A19.88,19.88,0,0,0,207.79,158.77Z" style="fill:#ebebeb;fill-rule:evenodd"></path><path d="M118.62,172.85a22.29,22.29,0,0,1,4.16-4.24l-1-5.43,8.39-3.58,3.23,4.47a22.34,22.34,0,0,1,6-.07l3.13-4.53,8.47,3.4-.88,5.44a22.35,22.35,0,0,1,4.25,4.16l5.43-1,3.58,8.4-4.47,3.23a22.69,22.69,0,0,1,.07,5.94l4.53,3.14-3.4,8.47-5.44-.88a22.11,22.11,0,0,1-4.17,4.25l1,5.43L143.06,213l-3.23-4.47a22.35,22.35,0,0,1-6,.06l-3.13,4.54-8.47-3.4.88-5.45a22.06,22.06,0,0,1-4.25-4.16l-5.43,1-3.58-8.39,4.47-3.23a22.35,22.35,0,0,1-.06-5.95l-4.54-3.13,3.4-8.47,5.45.87Zm9.07,9.43a9.79,9.79,0,1,0,12.73-5.43A9.79,9.79,0,0,0,127.69,182.28Z" style="fill:#e0e0e0"></path><path d="M127.69,182.28a7.54,7.54,0,0,1,1.09-2.16,9.91,9.91,0,0,1,9.95-4,10.12,10.12,0,0,1,4.74,2.34,9.74,9.74,0,0,1,1.86,2.21,9.61,9.61,0,0,1,1.18,2.77,10,10,0,0,1-4.43,11,10.09,10.09,0,0,1-5.65,1.49,10,10,0,0,1-5-1.58,9.86,9.86,0,0,1-3.18-3.34A9.7,9.7,0,0,1,127,184.6a7.41,7.41,0,0,1,.71-2.32c.07,0-.3.82-.5,2.35a9.77,9.77,0,0,0,1.36,6.21,9.6,9.6,0,0,0,7.9,4.61,9.55,9.55,0,0,0,5.34-1.44A9.48,9.48,0,0,0,146,183.57a9,9,0,0,0-1.11-2.63,8.7,8.7,0,0,0-1.75-2.1,9.57,9.57,0,0,0-4.48-2.27,9.42,9.42,0,0,0-4.41.13,9.74,9.74,0,0,0-5.27,3.54C128,181.48,127.76,182.31,127.69,182.28Z" style="fill:#e0e0e0"></path><path d="M118.62,172.85a1.54,1.54,0,0,1-.35,0l-1-.14-4.08-.61.1-.06-3.36,8.49-.05-.17,4.55,3.12.08.05v.1a22.53,22.53,0,0,0,.08,5.9l0,.11-.09.07L110,192.92l.07-.24c1.13,2.64,2.33,5.44,3.6,8.38l-.25-.13,5.43-1,.13,0,.09.11a22.55,22.55,0,0,0,4.21,4.11l.12.09,0,.14c-.27,1.69-.57,3.55-.87,5.45l-.15-.28,8.47,3.39-.32.1c1-1.41,2.05-3,3.13-4.54l.1-.13.16,0a22.28,22.28,0,0,0,5.87-.07l.16,0,.1.14,3.24,4.46-.34-.09,8.39-3.58-.16.31c-.31-1.72-.65-3.57-1-5.43l0-.17.13-.1a22.7,22.7,0,0,0,4.11-4.19h0l.1-.13.17,0,5.44.88-.3.17,3.4-8.46.1.33-4.53-3.14-.14-.09,0-.17a21.75,21.75,0,0,0-.06-5.87l0-.17.13-.09,4.47-3.23-.09.32-3.57-8.39.28.15-5.42,1-.15,0-.1-.12a21.77,21.77,0,0,0-4.19-4.12l-.12-.09,0-.15c.31-1.86.6-3.67.89-5.44l.14.26-8.46-3.42.26-.08-3.15,4.53-.07.1-.12,0a22.23,22.23,0,0,0-5.89.05l-.11,0-.07-.09c-1.17-1.63-2.22-3.1-3.22-4.48l.2.05-8.4,3.55.07-.14c.38,2.17.7,4,1,5.43v0l0,0a23.89,23.89,0,0,0-3.26,3l-.71.85a2.36,2.36,0,0,1-.24.27,1.68,1.68,0,0,1,.2-.3c.14-.2.36-.5.68-.88a22,22,0,0,1,3.22-3.14l0,.09c-.28-1.48-.62-3.25-1-5.42l0-.1.1,0,8.37-3.61.12-.06.08.11,3.25,4.46-.18-.07a22.56,22.56,0,0,1,6-.09l-.19.09,3.13-4.54.09-.15.16.07,8.47,3.38.18.07,0,.19-.87,5.44-.09-.23a22.46,22.46,0,0,1,4.3,4.2l-.24-.09,5.42-1,.2,0,.09.19c1.16,2.73,2.36,5.53,3.58,8.39l.09.2-.17.12L159,183.33l.11-.26a22.45,22.45,0,0,1,.07,6l-.12-.26,4.54,3.13.18.13-.08.2-3.4,8.47-.08.21-.23,0-5.44-.87.27-.11h0a22.62,22.62,0,0,1-4.21,4.3l.1-.27c.34,1.86.68,3.71,1,5.43l0,.21-.21.09-8.39,3.58-.2.09-.13-.18c-1.11-1.55-2.22-3.07-3.23-4.47l.26.11a23,23,0,0,1-6,.06l.25-.12L131,213.32l-.12.17-.19-.08L122.19,210l-.19-.08,0-.19c.3-1.9.6-3.76.88-5.44l.09.23a22.56,22.56,0,0,1-4.28-4.22l.22.09-5.43,1-.17,0-.07-.16-3.56-8.4-.06-.15.13-.09,4.47-3.22-.07.17a22.73,22.73,0,0,1,0-6l.07.16-4.52-3.16-.09-.06,0-.11c1.4-3.44,2.57-6.28,3.45-8.44l0-.07h.07l4,.7,1,.19Z" style="fill:#e0e0e0"></path><path d="M430,397c-.3.88,10,40,10,40l7.06-1.47L437.34,397Z" style="fill:#ebebeb"></path><polygon points="484.7 391.4 470.58 436.99 478.81 436.99 492.35 394.63 484.7 391.4" style="fill:#f5f5f5"></polygon><polygon points="497.64 384.34 481.46 436.99 489.7 436.99 505.29 387.57 497.64 384.34" style="fill:#ebebeb"></polygon><polygon points="434.99 433.75 443.23 462.28 484.7 462.28 492.35 433.75 434.99 433.75" style="fill:#e0e0e0"></polygon><path d="M456.38,433.75a1.32,1.32,0,0,1-.09-.29c-.05-.22-.13-.51-.22-.87-.19-.81-.45-1.93-.79-3.37l-2.85-12.46c-2.38-10.59-5.65-25.22-9.31-41.55l.25.2h-7.26l.25-.31c3.68,16.34,7,31,9.37,41.58,1.16,5.26,2.1,9.52,2.75,12.49.31,1.45.55,2.59.73,3.39.07.37.13.66.17.89a1,1,0,0,1,0,.3,1.1,1.1,0,0,1-.09-.29c-.06-.22-.13-.51-.22-.87-.2-.8-.47-1.93-.82-3.37-.69-3-1.68-7.21-2.91-12.46-2.43-10.59-5.78-25.22-9.52-41.55l-.08-.32h7.8l.05.21c3.59,16.34,6.81,31,9.15,41.58,1.13,5.26,2.05,9.52,2.69,12.49.3,1.45.53,2.59.7,3.4.07.36.13.65.17.88A1,1,0,0,1,456.38,433.75Z" style="fill:#e0e0e0"></path></g><g id="freepik--Floor--inject-82"><path d="M640.92,462.33c0,.15-119.06.26-265.91.26s-265.93-.11-265.93-.26,119-.26,265.93-.26S640.92,462.19,640.92,462.33Z" style="fill:#263238"></path></g><g id="freepik--Plant--inject-82"><path d="M357.15,433a18.08,18.08,0,0,0-11.23-1.29c-2,.35-4.15,1-5.52,2.51s-1.62,4.23,0,5.53a5.23,5.23,0,0,0,3.5.86c3-.05,6.25-.59,8.63,1.18,1.36,1,2.27,2.69,3.89,3.18a3.81,3.81,0,0,0,4.19-1.9,6.52,6.52,0,0,0,.44-4.82A7.34,7.34,0,0,0,357.15,433Z" style="fill:#FF725E"></path><g style="opacity:0.30000000000000004"><path d="M357.15,433a18.08,18.08,0,0,0-11.23-1.29c-2,.35-4.15,1-5.52,2.51s-1.62,4.23,0,5.53a5.23,5.23,0,0,0,3.5.86c3-.05,6.25-.59,8.63,1.18,1.36,1,2.27,2.69,3.89,3.18a3.81,3.81,0,0,0,4.19-1.9,6.52,6.52,0,0,0,.44-4.82A7.34,7.34,0,0,0,357.15,433Z"></path></g><path d="M364.87,417.87c-2.07,3-6.13,2-8,.23s-2.71-4.44-3.45-7c-1.69-5.73-3.39-11.74-2.2-17.6a9.8,9.8,0,0,1,2.22-4.8,5.11,5.11,0,0,1,4.83-1.65c2.05.53,3.33,2.52,4.27,4.42a42.05,42.05,0,0,1,4.26,18c0,2.9-.29,5.94-1.91,8.35" style="fill:#FF725E"></path><g style="opacity:0.30000000000000004"><path d="M364.87,417.87c-2.07,3-6.13,2-8,.23s-2.71-4.44-3.45-7c-1.69-5.73-3.39-11.74-2.2-17.6a9.8,9.8,0,0,1,2.22-4.8,5.11,5.11,0,0,1,4.83-1.65c2.05.53,3.33,2.52,4.27,4.42a42.05,42.05,0,0,1,4.26,18c0,2.9-.29,5.94-1.91,8.35" style="fill:#fff"></path></g><path d="M370.62,422.11a10.87,10.87,0,0,1-1.75-10,19.37,19.37,0,0,1,5.85-8.61,31.91,31.91,0,0,1,10.54-6.31,11.33,11.33,0,0,1,4.76-.84,5,5,0,0,1,4,2.39c1.12,2.12.07,4.7-1.07,6.81a80.4,80.4,0,0,1-6.88,10.63c-2.06,2.7-4.43,5.36-7.6,6.6s-6.46,1.11-8.16-1.08" style="fill:#FF725E"></path><path d="M365.3,462.81a6,6,0,0,1-.2-1.35c-.1-1-.23-2.22-.38-3.69a51.66,51.66,0,0,0-.87-5.42,41.49,41.49,0,0,0-2-6.38,23.55,23.55,0,0,0-3.3-5.77,12.25,12.25,0,0,0-4.15-3.4,11.76,11.76,0,0,0-3.49-1.06,6,6,0,0,1-1.35-.19,6.1,6.1,0,0,1,1.37,0,10.8,10.8,0,0,1,3.64.92,12.2,12.2,0,0,1,4.37,3.44,22.86,22.86,0,0,1,3.43,5.88,40.09,40.09,0,0,1,2,6.49,45.44,45.44,0,0,1,.75,5.48c.13,1.57.18,2.84.21,3.72A5.76,5.76,0,0,1,365.3,462.81Z" style="fill:#263238"></path><path d="M365,460a2.23,2.23,0,0,1,0-.63c0-.47,0-1.06,0-1.79,0-1.56,0-3.82-.12-6.6-.18-5.57-.71-13.26-1.69-21.71s-2.27-16.05-3.44-21.5c-.27-1.36-.55-2.59-.81-3.67s-.46-2-.66-2.76-.32-1.29-.43-1.75a3.16,3.16,0,0,1-.12-.61,2.18,2.18,0,0,1,.23.58c.14.45.31,1,.53,1.72s.48,1.67.76,2.74.59,2.3.89,3.67a204.81,204.81,0,0,1,3.61,21.52c1,8.46,1.45,16.17,1.52,21.76.05,2.79,0,5.05-.05,6.61,0,.73-.07,1.33-.1,1.8A2.74,2.74,0,0,1,365,460Z" style="fill:#263238"></path><path d="M364.89,445.09a12.75,12.75,0,0,1,0-1.87c.07-1.21.22-3,.55-5.09a66.52,66.52,0,0,1,1.6-7.42,65.28,65.28,0,0,1,3-8.78,46.74,46.74,0,0,1,9-14.23,22.33,22.33,0,0,1,2.12-2c.33-.28.62-.56.91-.78l.83-.58a11.92,11.92,0,0,1,1.57-1,55.83,55.83,0,0,0-5.15,4.66,49.16,49.16,0,0,0-8.77,14.17,67.53,67.53,0,0,0-3.06,8.7,72.41,72.41,0,0,0-1.71,7.35c-.38,2.11-.59,3.84-.72,5A10.87,10.87,0,0,1,364.89,445.09Z" style="fill:#263238"></path></g><g id="freepik--Draw--inject-82"><rect x="250.29" y="77.66" width="237.88" height="250.18" style="fill:#fafafa"></rect><path d="M488.17,327.84c0-1.94-.09-100.44-.23-250.18l.23.23-237.86,0h0l.26-.26c0,91.86,0,177.79,0,250.18l-.22-.22,237.88.22-237.88.23h-.22v-.23c0-72.39,0-158.32,0-250.18V77.4h.28l237.86,0h.23v.23C488.26,227.4,488.17,325.9,488.17,327.84Z" style="fill:#263238"></path><path d="M349.58,255.84a6.41,6.41,0,0,1-2.51.18,6.14,6.14,0,0,1-2.49-.35,6.33,6.33,0,0,1,2.51-.17A6,6,0,0,1,349.58,255.84Z" style="fill:#263238"></path><path d="M359.57,256.16a5.93,5.93,0,0,1-2.5.18,6.19,6.19,0,0,1-2.49-.34,6.34,6.34,0,0,1,2.5-.18A6.41,6.41,0,0,1,359.57,256.16Z" style="fill:#263238"></path><path d="M369.57,256.49a6.44,6.44,0,0,1-2.51.18,6.14,6.14,0,0,1-2.49-.35,6.33,6.33,0,0,1,2.51-.17A6,6,0,0,1,369.57,256.49Z" style="fill:#263238"></path><path d="M379.56,256.81a5.93,5.93,0,0,1-2.5.18,6.19,6.19,0,0,1-2.49-.34,6.34,6.34,0,0,1,2.5-.18A6.41,6.41,0,0,1,379.56,256.81Z" style="fill:#263238"></path><path d="M389.56,257.14a6.44,6.44,0,0,1-2.51.18,6.14,6.14,0,0,1-2.49-.35,6.33,6.33,0,0,1,2.51-.17A6,6,0,0,1,389.56,257.14Z" style="fill:#263238"></path><path d="M398.34,256c.1,0,.09.62,0,1.47l0,.2h-.21c-.32,0-.67,0-1,0a6.17,6.17,0,0,1-2.48-.34,6.34,6.34,0,0,1,2.5-.18c.37,0,.73,0,1,.06l-.24.2C398.05,256.53,398.24,256,398.34,256Z" style="fill:#263238"></path><path d="M400.65,246.26a6.15,6.15,0,0,1-.38,2.48,6.25,6.25,0,0,1-.88,2.35,6.18,6.18,0,0,1,.38-2.48A6,6,0,0,1,400.65,246.26Z" style="fill:#263238"></path><path d="M403.68,236.73a6.51,6.51,0,0,1-.56,2.46,6.27,6.27,0,0,1-1,2.28,6.16,6.16,0,0,1,.55-2.45A6.09,6.09,0,0,1,403.68,236.73Z" style="fill:#263238"></path><path d="M407.33,227.43a5.94,5.94,0,0,1-.71,2.41,6.3,6.3,0,0,1-1.19,2.21,6,6,0,0,1,.71-2.41A6.25,6.25,0,0,1,407.33,227.43Z" style="fill:#263238"></path><path d="M411.61,218.39a12.32,12.32,0,0,1-2.22,4.49,6.35,6.35,0,0,1,.88-2.36A6.25,6.25,0,0,1,411.61,218.39Z" style="fill:#263238"></path><path d="M416.5,209.68a6.29,6.29,0,0,1-1,2.29c-.69,1.19-1.36,2.09-1.49,2a6.37,6.37,0,0,1,1-2.29C415.71,210.51,416.37,209.6,416.5,209.68Z" style="fill:#263238"></path><path d="M421.8,201.2a6,6,0,0,1-1.09,2.26c-.73,1.18-1.42,2.07-1.54,2a6.21,6.21,0,0,1,1.1-2.26C421,202,421.68,201.13,421.8,201.2Z" style="fill:#263238"></path><path d="M426.46,192.35a6.28,6.28,0,0,1-.87,2.36c-.62,1.24-1.22,2.19-1.35,2.12a6.51,6.51,0,0,1,.88-2.36A6.27,6.27,0,0,1,426.46,192.35Z" style="fill:#263238"></path><path d="M430.11,183a6.17,6.17,0,0,1-.59,2.44,6.31,6.31,0,0,1-1.09,2.27,6.23,6.23,0,0,1,.6-2.44A6.42,6.42,0,0,1,430.11,183Z" style="fill:#263238"></path><path d="M432.48,173.33a6.22,6.22,0,0,1-.25,2.5,6.13,6.13,0,0,1-.75,2.4,6.31,6.31,0,0,1,.24-2.5A6.4,6.4,0,0,1,432.48,173.33Z" style="fill:#263238"></path><path d="M433.25,163.37a6.27,6.27,0,0,1,.18,2.5,6,6,0,0,1-.35,2.49,6.3,6.3,0,0,1-.17-2.5A6,6,0,0,1,433.25,163.37Z" style="fill:#263238"></path><path d="M432.13,153.44a12.25,12.25,0,0,1,.81,4.93,6.19,6.19,0,0,1-.67-2.42A6.27,6.27,0,0,1,432.13,153.44Z" style="fill:#263238"></path><path d="M429.06,143.94a6.24,6.24,0,0,1,1.11,2.25,6,6,0,0,1,.63,2.43,6.36,6.36,0,0,1-1.11-2.25A6.08,6.08,0,0,1,429.06,143.94Z" style="fill:#263238"></path><path d="M424.56,135c.13-.07.77.85,1.44,2.06a6.16,6.16,0,0,1,1,2.32,12.2,12.2,0,0,1-2.42-4.38Z" style="fill:#263238"></path><path d="M418.71,126.93c.11-.1.9.71,1.76,1.8s1.46,2,1.34,2.12-.9-.72-1.75-1.8A6.62,6.62,0,0,1,418.71,126.93Z" style="fill:#263238"></path><path d="M411.53,120c.09-.11,1,.54,2.05,1.45s1.81,1.75,1.7,1.85a6.42,6.42,0,0,1-2-1.45C412.21,120.93,411.44,120.1,411.53,120Z" style="fill:#263238"></path><path d="M403.18,114.52a6.16,6.16,0,0,1,2.29,1c1.19.71,2.1,1.38,2,1.5a6.27,6.27,0,0,1-2.29-1C404,115.32,403.11,114.65,403.18,114.52Z" style="fill:#263238"></path><path d="M394,110.7a6,6,0,0,1,2.44.61,6.1,6.1,0,0,1,2.26,1.09,6.49,6.49,0,0,1-2.44-.6A6.27,6.27,0,0,1,394,110.7Z" style="fill:#263238"></path><path d="M384.21,108.5a6.32,6.32,0,0,1,2.51.2,6.18,6.18,0,0,1,2.41.71,12.17,12.17,0,0,1-4.92-.91Z" style="fill:#263238"></path><path d="M374.25,107.74a6.24,6.24,0,0,1,2.5-.15,6.36,6.36,0,0,1,2.49.36,11.88,11.88,0,0,1-5-.21Z" style="fill:#263238"></path><path d="M364.27,108.21a6.11,6.11,0,0,1,2.47-.47,6.29,6.29,0,0,1,2.51,0,6.18,6.18,0,0,1-2.47.48A6.44,6.44,0,0,1,364.27,108.21Z" style="fill:#263238"></path><path d="M354.46,110.09a12.09,12.09,0,0,1,4.87-1.11,12.09,12.09,0,0,1-4.87,1.11Z" style="fill:#263238"></path><path d="M345,113.37a6.1,6.1,0,0,1,2.23-1.15,6,6,0,0,1,2.42-.67,12.2,12.2,0,0,1-4.65,1.82Z" style="fill:#263238"></path><path d="M336.26,118.16c-.08-.12.82-.8,2-1.52a6,6,0,0,1,2.27-1.07c.07.13-.83.81-2,1.52A6.24,6.24,0,0,1,336.26,118.16Z" style="fill:#263238"></path><path d="M328.56,124.51c-.1-.1.65-.94,1.67-1.88s1.94-1.6,2-1.49-.66,1-1.68,1.88A6.36,6.36,0,0,1,328.56,124.51Z" style="fill:#263238"></path><path d="M322.28,132.27a6.08,6.08,0,0,1,1.26-2.17c.82-1.13,1.57-2,1.68-1.87A6.28,6.28,0,0,1,324,130.4C323.15,131.51,322.4,132.35,322.28,132.27Z" style="fill:#263238"></path><path d="M317.62,141.11a5.44,5.44,0,0,1,.81-2.39c.6-1.25,1.19-2.21,1.32-2.14a6.55,6.55,0,0,1-.85,2.36C318.28,140.17,317.77,141.17,317.62,141.11Z" style="fill:#263238"></path><path d="M314.24,150.51a6.19,6.19,0,0,1,.53-2.46,6.32,6.32,0,0,1,1-2.29,6.13,6.13,0,0,1-.53,2.46A6.54,6.54,0,0,1,314.24,150.51Z" style="fill:#263238"></path><path d="M367.45,255.72a51.88,51.88,0,0,1-6.91-9.61,17.38,17.38,0,0,1-1.93-11.47c.84-3.86,3.76-7.39,7.63-8.23,3-.64,6.32.25,8.92-1.31a8,8,0,0,0,3.31-5.46c.44-2.15.42-4.37.82-6.53,1.47-7.9,8.86-14,16.83-15S412.25,200.45,418,206c0,0-18.08,33.47-19.94,51.38Z" style="fill:#FF725E"></path><path d="M379.46,255.19s-.06-.28-.13-.83-.16-1.41-.28-2.47c-.23-2.21-.56-5.41-1-9.51-.79-8.25-2-20.22-2.44-35.06-.1-3.71-.17-7.6-.12-11.65s.09-8.27.54-12.64A35.43,35.43,0,0,1,379.67,170a20,20,0,0,1,10.57-9.6,13.5,13.5,0,0,1,14.25,3.44,10,10,0,0,1,2.73,7.38,12.82,12.82,0,0,1-3.07,7.44,17.32,17.32,0,0,1-6.6,4.83,33.9,33.9,0,0,1-8,2.22,95.3,95.3,0,0,1-16.78,1.14,97.71,97.71,0,0,1-16.74-1.63,31.66,31.66,0,0,1-7.85-2.68,20.62,20.62,0,0,1-6.43-5.06,15.39,15.39,0,0,1-3.49-7.25,12,12,0,0,1,1.32-7.78,10.72,10.72,0,0,1,5.79-5.12,9.54,9.54,0,0,1,7.5.72,14.29,14.29,0,0,1,5.39,5,19.33,19.33,0,0,1,2.48,6.72c.86,4.65.61,9.2.69,13.55,0,8.72.06,16.84.09,24.26,0,14.81,0,26.81.07,35.14,0,4.12,0,7.33,0,9.55,0,1.07,0,1.89,0,2.49s0,.84,0,.84,0-.28,0-.84,0-1.42-.05-2.49c0-2.22-.08-5.43-.13-9.55-.08-8.33-.2-20.32-.34-35.13-.05-7.42-.12-15.55-.19-24.27-.08-4.35.14-8.9-.71-13.41a18.92,18.92,0,0,0-2.4-6.46,13.52,13.52,0,0,0-5.1-4.77,8.82,8.82,0,0,0-6.91-.66,10,10,0,0,0-5.35,4.76,11.16,11.16,0,0,0-1.22,7.27,14.52,14.52,0,0,0,3.32,6.87c3.37,4.07,8.51,6.37,13.83,7.46A97.38,97.38,0,0,0,372.81,186a95.27,95.27,0,0,0,16.62-1.12,32.93,32.93,0,0,0,7.79-2.17,16.41,16.41,0,0,0,6.31-4.59,12.12,12.12,0,0,0,2.9-7,9.28,9.28,0,0,0-2.52-6.81,12.75,12.75,0,0,0-13.43-3.25,19.35,19.35,0,0,0-10.18,9.23,34.65,34.65,0,0,0-3.57,12.8c-.46,4.32-.51,8.53-.59,12.58s0,7.92.07,11.63c.39,14.82,1.49,26.78,2.18,35,.36,4.11.64,7.31.83,9.52.08,1.06.15,1.89.2,2.48S379.46,255.19,379.46,255.19Z" style="fill:#263238"></path><path d="M344.6,254.9s0,.2,0,.58v1.69c0,1.51,0,3.67-.05,6.42-.08,5.57-.2,13.51-.33,23.07l-.05-.14L360.85,308l-.21-.1,9.95,0,10.68,0-.19.08,16.32-18,0,.14c.26-10.16.47-18.63.63-24.59.09-3,.16-5.27.21-6.89l.07-1.81,0-.47c0-.1,0-.15,0-.15s0,.05,0,.15,0,.28,0,.47v1.81c0,1.62-.05,3.95-.09,6.89-.11,6-.26,14.44-.45,24.6v.09l-.05.06-16.28,18-.08.08h-.11l-10.68.05-9.95,0h-.12l-.08-.1-16.59-21.53-.05-.06v-.08c.21-9.56.39-17.49.51-23.06.08-2.75.14-4.91.18-6.42,0-.72.05-1.28.06-1.69S344.6,254.9,344.6,254.9Z" style="fill:#263238"></path><path d="M396.24,287.24a11.49,11.49,0,0,1-1.91-.92c-1.21-.62-3-1.47-5.23-2.37a52.07,52.07,0,0,0-37-.66c-2.28.81-4.08,1.6-5.31,2.18a12.38,12.38,0,0,1-1.95.85,10.16,10.16,0,0,1,1.8-1.14,44,44,0,0,1,5.26-2.44,49.5,49.5,0,0,1,37.43.67,44.2,44.2,0,0,1,5.17,2.63A9.16,9.16,0,0,1,396.24,287.24Z" style="fill:#263238"></path><path d="M396.63,279a11.49,11.49,0,0,1-1.91-.92c-1.21-.62-3-1.47-5.23-2.37a52.07,52.07,0,0,0-37-.66c-2.28.81-4.08,1.6-5.31,2.18a12.65,12.65,0,0,1-1.95.85A9.5,9.5,0,0,1,347,277a44.75,44.75,0,0,1,5.26-2.44,49.5,49.5,0,0,1,37.43.67,44.2,44.2,0,0,1,5.17,2.63A9.16,9.16,0,0,1,396.63,279Z" style="fill:#263238"></path><path d="M396.53,271.16a11.49,11.49,0,0,1-1.91-.92c-1.21-.62-3-1.47-5.24-2.37a52,52,0,0,0-37-.66,57.17,57.17,0,0,0-5.32,2.18,11,11,0,0,1-1.94.85,9.24,9.24,0,0,1,1.8-1.14,44.84,44.84,0,0,1,5.26-2.44,49.47,49.47,0,0,1,37.42.67,44.2,44.2,0,0,1,5.17,2.63A9.52,9.52,0,0,1,396.53,271.16Z" style="fill:#263238"></path><path d="M382,308.74a22,22,0,0,0-2.44-2.79,12.17,12.17,0,0,0-16.22-.25,19.73,19.73,0,0,0-2.53,2.71,2.93,2.93,0,0,1,.47-.9,11,11,0,0,1,1.81-2.09,12.13,12.13,0,0,1,16.72.26,10.78,10.78,0,0,1,1.74,2.15A2.9,2.9,0,0,1,382,308.74Z" style="fill:#263238"></path><path d="M271.33,63.86,232.79,98.78l4.9,1.68.28,5.48s7,.63,6.16.7c-.67,0,.41,6.28.41,6.28L284.19,74.4l-6-.35V68.78l-6.26-.07Z" style="fill:#ebebeb"></path><polygon points="250.29 107.34 280.84 77.66 290.23 77.66 250.29 107.34" style="fill:#e0e0e0"></polygon><path d="M497.21,106,462.52,65.4l-1.67,5.17-5.44.29s-.64,7.41-.7,6.5c0-.71-6.24.43-6.24.43l38.27,41.81.35-6.33h5.24l.07-6.6Z" style="fill:#ebebeb"></path><polygon points="472.68 77.66 488.17 95.46 488.17 88.39 472.68 77.66" style="fill:#e0e0e0"></polygon></g><g id="freepik--character-2--inject-82"><path d="M592.28,453.64l1.71,7.15s11.7,15.21,15.31,14.46c2.37-.48-.54-4.45-5-16l-.94-4.77Z" style="fill:#FF725E"></path><path d="M609.78,473a.59.59,0,0,1-.09.21,1.26,1.26,0,0,1-.5.46,1.87,1.87,0,0,1-1,.23,2.8,2.8,0,0,1-1.32-.48,56,56,0,0,1-5.9-5.5,75.36,75.36,0,0,1-5.23-6.13c-.63-.82-1.12-1.5-1.44-2l-.38-.55c-.08-.13-.12-.2-.11-.21a1.84,1.84,0,0,1,.15.18l.41.52,1.5,1.93c1.28,1.61,3.1,3.79,5.27,6.07a63.73,63.73,0,0,0,5.82,5.52,2.14,2.14,0,0,0,2.23.31A1.6,1.6,0,0,0,609.78,473Z" style="fill:#263238"></path><path d="M608.12,468.12s-.37,0-.94.05a5.58,5.58,0,0,0-2.11.8,4.23,4.23,0,0,0-1.58,1.58c-.28.51-.35.87-.39.86a1.87,1.87,0,0,1,.24-.94,4.12,4.12,0,0,1,1.61-1.7,5.07,5.07,0,0,1,2.21-.76A1.89,1.89,0,0,1,608.12,468.12Z" style="fill:#263238"></path><path d="M597,464.55s.12-.51.22-1.34a5.51,5.51,0,0,0-.59-3.13,5.11,5.11,0,0,0-2.24-2.26,9.89,9.89,0,0,0-1.27-.47,1.3,1.3,0,0,1,.37,0,4.24,4.24,0,0,1,1,.3,5,5,0,0,1,2.37,2.3,5.32,5.32,0,0,1,.55,3.26,5.81,5.81,0,0,1-.24,1A1,1,0,0,1,597,464.55Z" style="fill:#263238"></path><path d="M593,454.85a7.36,7.36,0,0,1,.65,2.24c.21,1.27.44,2.28.39,2.3a7.31,7.31,0,0,1-.62-2.25C593.23,455.87,593,454.87,593,454.85Z" style="fill:#263238"></path><path d="M604.52,460.26c0,.07-.67.05-1.45.24s-1.38.48-1.41.42a2.57,2.57,0,0,1,1.35-.65A2.63,2.63,0,0,1,604.52,460.26Z" style="fill:#263238"></path><path d="M604.76,461.49c0,.07-.57,0-1.22.17s-1.12.45-1.16.39a1.82,1.82,0,0,1,1.11-.62A1.77,1.77,0,0,1,604.76,461.49Z" style="fill:#263238"></path><path d="M605.69,463a5.68,5.68,0,0,0-1.26,0,6.46,6.46,0,0,0-1.16.51,1.56,1.56,0,0,1,1.11-.73A1.5,1.5,0,0,1,605.69,463Z" style="fill:#263238"></path><path d="M603.71,459.75a1.43,1.43,0,0,1-.39-.05,7.33,7.33,0,0,1-1-.27,9.73,9.73,0,0,1-1.46-.65c-.26-.15-.53-.31-.8-.5a1.2,1.2,0,0,1-.59-.9.69.69,0,0,1,.9-.56,1.84,1.84,0,0,1,.81.54,15.17,15.17,0,0,1,1.08,1.18,10.39,10.39,0,0,1,.64.85,1.61,1.61,0,0,1,.2.35s-.37-.43-1-1.1c-.29-.33-.66-.72-1.09-1.12a1.76,1.76,0,0,0-.72-.48c-.27-.07-.61.07-.62.35a1,1,0,0,0,.49.71,8.35,8.35,0,0,0,.78.49,9.36,9.36,0,0,0,1.41.68C603.17,459.6,603.72,459.71,603.71,459.75Z" style="fill:#263238"></path><path d="M603.1,459.6s0-.13,0-.36a8.84,8.84,0,0,1,.08-1,5,5,0,0,1,.36-1.41,3.09,3.09,0,0,1,.46-.75.79.79,0,0,1,.94-.3.91.91,0,0,1,.33.93,3.44,3.44,0,0,1-.26.84,4.29,4.29,0,0,1-.84,1.21,5.43,5.43,0,0,1-.74.63,1.27,1.27,0,0,1-.31.18s.39-.32.93-.92a4.63,4.63,0,0,0,.77-1.18,3.33,3.33,0,0,0,.22-.78c0-.27,0-.59-.21-.71s-.48.05-.66.25a2.88,2.88,0,0,0-.43.68,5.17,5.17,0,0,0-.4,1.35C603.18,459.1,603.13,459.61,603.1,459.6Z" style="fill:#263238"></path><g style="opacity:0.4"><path d="M594,460.79l-.83-3.44s2.87.54,3.62,2.68a9,9,0,0,1,.55,3.68l6.24,6.71s1.56-3.06,4.4-2.32c0,0,2.23,4.9,2.16,6.13s-1.5,1.08-2,.85a25.12,25.12,0,0,1-5.58-4.41C599.24,467.25,595.59,462.9,594,460.79Z"></path></g><path d="M534.09,457.25l-.05-9.54,17.88-.22.23,14-1.11.08c-4.93.33-25.09,1.35-28.4.39C518.94,460.86,534.09,457.25,534.09,457.25Z" style="fill:#FF725E"></path><g style="opacity:0.4"><path d="M545.66,461.39a6.23,6.23,0,0,1,2.24-3.84,6,6,0,0,1,4.16-1.35l.06,5Z"></path></g><path d="M526.69,459.28s-5.3,1.6-4.63,2.47,21.09.61,30.09-.29l0-.4-23.81.5S527.74,459.31,526.69,459.28Z" style="opacity:0.4"></path><path d="M552.39,461l-.3,0-.89.06-3.24.19c-2.75.13-6.54.26-10.73.32s-8,0-10.73,0l-3.25-.09-.89,0-.31,0h1.2l3.25,0c2.74,0,6.54,0,10.73,0s8-.16,10.72-.26l3.25-.11.88,0A1.19,1.19,0,0,1,552.39,461Z" style="fill:#263238"></path><path d="M528.31,461.84a4.65,4.65,0,0,0-1.75-2.77,2.35,2.35,0,0,1,1.31,1.11A2.38,2.38,0,0,1,528.31,461.84Z" style="fill:#263238"></path><path d="M533.55,459.1s-.3-.27-.57-.68-.44-.77-.39-.8.31.27.57.68S533.6,459.06,533.55,459.1Z" style="fill:#263238"></path><path d="M535,458.31c0,.05-.32-.14-.63-.41s-.54-.53-.5-.57.33.13.64.41S535,458.27,535,458.31Z" style="fill:#263238"></path><path d="M535.89,456.61a2.12,2.12,0,0,1-.94.13,2,2,0,0,1-.93-.08,2.05,2.05,0,0,1,.93-.13A2.24,2.24,0,0,1,535.89,456.61Z" style="fill:#263238"></path><path d="M536.18,455.42a1.85,1.85,0,0,1-1,.32,1.93,1.93,0,0,1-1.08-.13,4.67,4.67,0,0,1,1.06-.09A5.52,5.52,0,0,1,536.18,455.42Z" style="fill:#263238"></path><path d="M532.93,457.55a3.49,3.49,0,0,1-1.15,0,6.71,6.71,0,0,1-1.23-.25,3.93,3.93,0,0,1-.7-.28.64.64,0,0,1-.29-.35.46.46,0,0,1,.17-.47,2.1,2.1,0,0,1,2.61.59,2,2,0,0,1,.39.76.81.81,0,0,1,0,.31,3,3,0,0,0-.54-1,2,2,0,0,0-1-.63,1.79,1.79,0,0,0-1.36.11c-.18.14-.11.35.09.47a3.71,3.71,0,0,0,.65.27,9.22,9.22,0,0,0,1.19.29C532.49,457.51,532.93,457.51,532.93,457.55Z" style="fill:#263238"></path><path d="M532.63,457.61a1.11,1.11,0,0,1-.14-.8,1.79,1.79,0,0,1,.3-.84,1.14,1.14,0,0,1,1-.6.45.45,0,0,1,.36.52,1.28,1.28,0,0,1-.19.52,3.12,3.12,0,0,1-.53.7,1.76,1.76,0,0,1-.65.48s.22-.21.54-.58a4.24,4.24,0,0,0,.47-.7c.15-.24.25-.68,0-.73s-.58.27-.75.5a1.85,1.85,0,0,0-.32.75A4.79,4.79,0,0,0,532.63,457.61Z" style="fill:#263238"></path><path d="M552,456.16s-.52-.05-1.32.06A5.59,5.59,0,0,0,546,460c-.26.77-.28,1.29-.32,1.28s0-.13,0-.36a5.28,5.28,0,0,1,2-3.65,5.48,5.48,0,0,1,3-1.21,4.37,4.37,0,0,1,1,0C551.84,456.11,552,456.14,552,456.16Z" style="fill:#263238"></path><path d="M550,448.74a61.33,61.33,0,0,1,.18,7.34,61.33,61.33,0,0,1-.18-7.34Z" style="fill:#263238"></path><path d="M543.39,459.68a9.94,9.94,0,0,1-2.61.29,10.26,10.26,0,0,1-2.61-.17c0-.07,1.17,0,2.61,0S543.38,459.62,543.39,459.68Z" style="fill:#263238"></path><path d="M546.89,459.63c.05,0-.09.25-.2.52s-.18.51-.24.5-.1-.28,0-.59S546.85,459.59,546.89,459.63Z" style="fill:#263238"></path><path d="M548.19,458s-.07.23-.25.42-.36.31-.41.27.07-.23.25-.42S548.15,457.93,548.19,458Z" style="fill:#263238"></path><path d="M550.07,457.19c0,.07-.25.07-.51.16s-.45.24-.49.2.1-.29.42-.4S550.09,457.14,550.07,457.19Z" style="fill:#263238"></path><path d="M551.41,456.82c0,.06-.08.15-.22.21s-.29.06-.31,0,.08-.15.23-.21S551.39,456.77,551.41,456.82Z" style="fill:#263238"></path><polyline points="524.47 273.73 530.27 453.14 558.12 453.73 553.49 298.47 584.81 454.91 611.28 454.91 575.92 267.69" style="fill:#455a64"></polyline><polygon points="583.43 452.39 584.07 455.13 611.28 455.5 610.87 451.21 583.43 452.39" style="fill:#263238"></polygon><path d="M553.31,452.11c.16,0,.31.35.33.81s-.09.83-.24.84-.31-.35-.33-.81S553.15,452.12,553.31,452.11Z" style="fill:#263238"></path><path d="M553,445.39c.16,0,.31.75.35,1.67s-.07,1.69-.23,1.69-.31-.74-.35-1.66S552.88,445.4,553,445.39Z" style="fill:#263238"></path><path d="M552.84,438.67c.16,0,.31.75.33,1.68s-.08,1.68-.24,1.68-.31-.74-.33-1.67S552.68,438.68,552.84,438.67Z" style="fill:#263238"></path><path d="M552.67,432c.16,0,.31.75.33,1.68s-.09,1.68-.25,1.68-.3-.74-.33-1.67S552.51,432,552.67,432Z" style="fill:#263238"></path><path d="M552.51,425.23c.16,0,.3.74.33,1.67s-.09,1.69-.25,1.69-.31-.75-.33-1.68S552.35,425.23,552.51,425.23Z" style="fill:#263238"></path><path d="M552.32,418.5c.16,0,.31.74.34,1.67s-.08,1.69-.24,1.69-.31-.74-.34-1.67S552.16,418.5,552.32,418.5Z" style="fill:#263238"></path><path d="M552.06,411.78c.16,0,.32.74.36,1.67s-.06,1.68-.22,1.69-.32-.74-.36-1.67S551.9,411.79,552.06,411.78Z" style="fill:#263238"></path><path d="M551.79,405.06c.15,0,.31.74.35,1.67s-.06,1.68-.22,1.69-.32-.74-.36-1.67S551.63,405.07,551.79,405.06Z" style="fill:#263238"></path><path d="M551.54,398.34c.16,0,.32.74.35,1.67s-.07,1.68-.23,1.69-.31-.74-.35-1.67S551.38,398.35,551.54,398.34Z" style="fill:#263238"></path><path d="M551.33,391.62c.16,0,.31.74.34,1.67s-.08,1.68-.24,1.69-.31-.74-.34-1.67S551.17,391.62,551.33,391.62Z" style="fill:#263238"></path><path d="M551.15,384.9c.16,0,.31.74.33,1.67s-.09,1.69-.25,1.69-.3-.74-.33-1.67S551,384.9,551.15,384.9Z" style="fill:#263238"></path><path d="M551,378.18c.16,0,.3.74.32,1.67s-.09,1.68-.25,1.69-.3-.75-.32-1.68S550.84,378.18,551,378.18Z" style="fill:#263238"></path><path d="M550.89,371.45c.16,0,.3.75.31,1.68s-.1,1.68-.26,1.68-.3-.74-.31-1.67S550.73,371.46,550.89,371.45Z" style="fill:#263238"></path><path d="M550.81,364.73c.16,0,.3.75.31,1.68s-.12,1.68-.27,1.68-.3-.75-.31-1.68S550.65,364.73,550.81,364.73Z" style="fill:#263238"></path><path d="M550.77,358c.16,0,.29.75.3,1.68s-.12,1.68-.28,1.68-.3-.75-.3-1.68S550.61,358,550.77,358Z" style="fill:#263238"></path><path d="M550.77,351.28c.15,0,.28.75.28,1.68s-.13,1.68-.29,1.68-.28-.75-.28-1.68S550.61,351.28,550.77,351.28Z" style="fill:#263238"></path><path d="M550.8,344.56c.16,0,.28.75.27,1.68s-.13,1.68-.29,1.68-.29-.75-.28-1.68S550.64,344.56,550.8,344.56Z" style="fill:#263238"></path><path d="M550.87,337.83c.15,0,.27.76.26,1.69s-.14,1.68-.3,1.68-.28-.76-.27-1.69S550.71,337.83,550.87,337.83Z" style="fill:#263238"></path><path d="M551,331.11c.16,0,.28.76.26,1.69s-.16,1.67-.32,1.67-.27-.75-.26-1.68S550.81,331.11,551,331.11Z" style="fill:#263238"></path><path d="M551.11,324.39c.16,0,.27.76.25,1.68s-.17,1.68-.32,1.68-.28-.76-.26-1.69S551,324.38,551.11,324.39Z" style="fill:#263238"></path><path d="M551.31,317.66c.16,0,.27.76.23,1.69s-.18,1.68-.34,1.67-.26-.76-.23-1.69S551.16,317.65,551.31,317.66Z" style="fill:#263238"></path><path d="M551.67,310.94c.16,0,.24.77.19,1.7s-.23,1.67-.39,1.66-.24-.77-.19-1.7S551.51,310.93,551.67,310.94Z" style="fill:#263238"></path><path d="M552.26,304.24c.16,0,.21.78.12,1.7s-.29,1.66-.45,1.65-.21-.78-.12-1.7S552.1,304.22,552.26,304.24Z" style="fill:#263238"></path><path d="M552.9,299.27c.16,0,.23.41.17.86s-.25.8-.4.78-.24-.41-.17-.86S552.74,299.24,552.9,299.27Z" style="fill:#263238"></path><polygon points="529.55 454.04 558.99 454.52 558.76 449.62 529.55 449.77 529.55 454.04" style="fill:#263238"></polygon><path d="M605.73,449.7c.16,0,.34.32.42.77s0,.84-.15.87-.35-.32-.42-.77S605.57,449.73,605.73,449.7Z" style="fill:#263238"></path><path d="M604.68,443.26c.15,0,.4.67.54,1.56s.14,1.63,0,1.66-.4-.68-.54-1.57S604.52,443.28,604.68,443.26Z" style="fill:#263238"></path><path d="M603.61,436.81c.16,0,.41.68.55,1.57s.14,1.63,0,1.65-.41-.67-.56-1.56S603.46,436.84,603.61,436.81Z" style="fill:#263238"></path><path d="M602.54,430.37c.16,0,.4.67.55,1.56s.14,1.63,0,1.66-.41-.67-.56-1.56S602.38,430.4,602.54,430.37Z" style="fill:#263238"></path><path d="M601.45,423.93c.16,0,.41.67.56,1.56s.14,1.63,0,1.66-.41-.67-.56-1.56S601.3,424,601.45,423.93Z" style="fill:#263238"></path><path d="M600.36,417.49c.16,0,.41.67.56,1.56s.15,1.63,0,1.66-.41-.67-.56-1.56S600.2,417.52,600.36,417.49Z" style="fill:#263238"></path><path d="M599.26,411.05c.15,0,.4.67.56,1.56s.15,1.63,0,1.66-.41-.67-.56-1.56S599.1,411.08,599.26,411.05Z" style="fill:#263238"></path><path d="M598.14,404.62c.16,0,.41.67.57,1.55s.15,1.64,0,1.66-.41-.67-.56-1.56S598,404.64,598.14,404.62Z" style="fill:#263238"></path><path d="M597,398.18c.16,0,.41.67.56,1.56s.16,1.63,0,1.66-.41-.67-.56-1.56S596.86,398.21,597,398.18Z" style="fill:#263238"></path><path d="M595.88,391.75c.16,0,.41.67.57,1.56s.16,1.63,0,1.65-.41-.66-.57-1.55S595.73,391.78,595.88,391.75Z" style="fill:#263238"></path><path d="M594.74,385.32c.16,0,.41.67.57,1.56s.16,1.63,0,1.65-.41-.67-.57-1.55S594.58,385.35,594.74,385.32Z" style="fill:#263238"></path><path d="M593.59,378.89c.15,0,.41.67.57,1.56s.16,1.63,0,1.65-.41-.67-.57-1.55S593.43,378.92,593.59,378.89Z" style="fill:#263238"></path><path d="M592.42,372.46c.16,0,.42.67.58,1.56s.16,1.63,0,1.66-.41-.67-.57-1.56S592.27,372.49,592.42,372.46Z" style="fill:#263238"></path><path d="M591.25,366c.15,0,.41.66.57,1.55s.17,1.63,0,1.66-.42-.67-.58-1.55S591.09,366.07,591.25,366Z" style="fill:#263238"></path><path d="M590.06,359.61c.16,0,.42.67.58,1.56s.17,1.63,0,1.66-.42-.67-.58-1.56S589.91,359.64,590.06,359.61Z" style="fill:#263238"></path><path d="M588.87,353.19c.15,0,.42.67.58,1.55s.17,1.63,0,1.66-.42-.66-.59-1.55S588.71,353.22,588.87,353.19Z" style="fill:#263238"></path><path d="M587.66,346.77c.16,0,.42.67.59,1.55s.17,1.63,0,1.66-.42-.66-.59-1.55S587.51,346.8,587.66,346.77Z" style="fill:#263238"></path><path d="M586.45,340.36c.16,0,.42.66.59,1.55s.17,1.62,0,1.65-.42-.66-.59-1.55S586.29,340.38,586.45,340.36Z" style="fill:#263238"></path><path d="M585.23,333.94c.15,0,.42.66.58,1.55s.19,1.63,0,1.66-.42-.67-.59-1.55S585.07,334,585.23,333.94Z" style="fill:#263238"></path><path d="M584,327.53c.16,0,.42.66.59,1.54s.19,1.63,0,1.66-.42-.66-.59-1.55S583.84,327.56,584,327.53Z" style="fill:#263238"></path><path d="M582.75,321.11c.15,0,.42.67.59,1.55s.19,1.63,0,1.66-.42-.66-.59-1.55S582.59,321.14,582.75,321.11Z" style="fill:#263238"></path><path d="M581.49,314.7c.16,0,.43.67.6,1.55s.19,1.63,0,1.66-.42-.66-.6-1.55S581.34,314.73,581.49,314.7Z" style="fill:#263238"></path><path d="M580.23,308.3c.15,0,.42.66.6,1.54s.19,1.63,0,1.66-.42-.66-.6-1.55S580.07,308.33,580.23,308.3Z" style="fill:#263238"></path><path d="M579,301.89c.16,0,.43.66.6,1.54s.2,1.63,0,1.66-.42-.66-.6-1.54S578.8,301.92,579,301.89Z" style="fill:#263238"></path><path d="M577.67,295.49c.15,0,.43.66.6,1.54s.2,1.63,0,1.66-.42-.66-.6-1.55S577.51,295.52,577.67,295.49Z" style="fill:#263238"></path><path d="M576.37,289.08c.16,0,.43.66.61,1.55s.2,1.62,0,1.65-.42-.65-.6-1.54S576.22,289.12,576.37,289.08Z" style="fill:#263238"></path><path d="M575.39,284.26c.16,0,.36.3.45.75s0,.84-.12.87-.35-.3-.44-.75S575.24,284.29,575.39,284.26Z" style="fill:#263238"></path><path d="M467.63,240s16.9,22.21,27.23,17.2,28.86-22,28.86-22l-13-13.06-17.24,19.23-22-10.66Z" style="fill:#ffbe9d"></path><path d="M561.18,198.12,544,196.75c-.11-2,0-9.77,0-9.77s-7.16-1.11-7.24-8.26,1.15-23.57,1.15-23.57h0a24.84,24.84,0,0,1,25,3.14l1.06.81Z" style="fill:#ffbe9d"></path><path d="M539.58,167.44a1,1,0,0,0,.07-1.47,1,1,0,1,0-.07,1.47Z" style="fill:#263238"></path><path d="M537.85,165.8c.11.13.81-.41,1.8-.42s1.7.51,1.81.38-.06-.28-.37-.52a2.45,2.45,0,0,0-1.45-.45,2.3,2.3,0,0,0-1.43.49C537.9,165.52,537.8,165.75,537.85,165.8Z" style="fill:#263238"></path><path d="M549.2,166.66a1,1,0,1,0,1.42.34A1,1,0,0,0,549.2,166.66Z" style="fill:#263238"></path><path d="M548.55,166.67c.11.12.81-.42,1.8-.42s1.7.5,1.8.38,0-.28-.37-.52a2.4,2.4,0,0,0-2.88,0C548.6,166.39,548.49,166.62,548.55,166.67Z" style="fill:#263238"></path><path d="M544.6,174.8a4.79,4.79,0,0,0-1.6-.34c-.25,0-.45-.09-.47-.23a1.34,1.34,0,0,1,.18-.73c.25-.66.51-1.32.78-2a27.52,27.52,0,0,0,1.69-5.26A27,27,0,0,0,543,171.3c-.26.69-.5,1.36-.74,2a1.57,1.57,0,0,0-.14,1.07.68.68,0,0,0,.44.42,1.48,1.48,0,0,0,.44,0A5.06,5.06,0,0,0,544.6,174.8Z" style="fill:#263238"></path><path d="M547.8,175.88a18.36,18.36,0,0,1-4.83,1.41,2.73,2.73,0,0,0,3.21,1.08C548.32,177.59,547.8,175.88,547.8,175.88Z" style="fill:#fff"></path><path d="M544,186.88a16.73,16.73,0,0,0,9.33-2.65s-2.21,5.14-9.34,4.5Z" style="fill:#eb996e"></path><path d="M537.79,157s4.18,2.42,10,0c3.84-1.58,8.23-2.16,9.13-1.35s.81,4.65,4.4,6c0,0-.79,7.26,2.13,7.22s2-11.46,2-11.46l-6.85-4-7.65-2-7.38.49L537.79,153Z" style="fill:#263238"></path><path d="M563.09,166.51c.12,0,4.91-1.46,4.75,3.43s-5,3.73-5,3.59S563.09,166.51,563.09,166.51Z" style="fill:#ffbe9d"></path><path d="M564.36,171.72s.08.06.23.13a.81.81,0,0,0,.63,0,2.11,2.11,0,0,0,1-1.86,3,3,0,0,0-.2-1.23,1,1,0,0,0-.62-.67.42.42,0,0,0-.51.22c-.07.13,0,.23-.07.24s-.1-.09-.06-.29a.57.57,0,0,1,.21-.3.66.66,0,0,1,.47-.11,1.21,1.21,0,0,1,.87.79,2.89,2.89,0,0,1,.25,1.37,2.21,2.21,0,0,1-1.31,2.07.92.92,0,0,1-.78-.15C564.37,171.84,564.34,171.73,564.36,171.72Z" style="fill:#eb996e"></path><path d="M542.64,164.2c-.16.28-1.1.05-2.22,0s-2.07.09-2.2-.21.83-1,2.25-.94S542.81,163.94,542.64,164.2Z" style="fill:#263238"></path><path d="M553.61,164.2c-.16.28-1.1.05-2.22,0s-2.07.09-2.2-.21.83-1,2.25-.94S553.78,163.94,553.61,164.2Z" style="fill:#263238"></path><path d="M558.75,156.64a16.62,16.62,0,0,0,2.84,3.3,5.6,5.6,0,0,0,4,1.4,3.43,3.43,0,0,0,3.09-2.63,2.5,2.5,0,0,0-2.43-2.89,1.52,1.52,0,1,0-.54-2.82c1.26-.07,1.65-2,.77-2.89a3.64,3.64,0,0,0-3.54-.6,21.08,21.08,0,0,1-3.61,1,8.11,8.11,0,0,1-5.38-2.08,23,23,0,0,0-4.82-3.37,11,11,0,0,0-7.11-.16,11.36,11.36,0,0,0-5.22,2.86,6.69,6.69,0,0,0-2,5.46,4.78,4.78,0,0,0,3.85,4.07,12.94,12.94,0,0,0,8.4-1.2c4-2.22,11.61-.87,11.61-.87Z" style="fill:#263238"></path><path d="M566.21,151.9a1.21,1.21,0,0,1-.31.18c-.21.11-.53.25-.94.42a15.41,15.41,0,0,1-3.66.93,16.64,16.64,0,0,1-5.61-.19,40.54,40.54,0,0,1-6.46-2.25,14.3,14.3,0,0,0-6.52-1.21,6.34,6.34,0,0,0-4.61,2.46,4.84,4.84,0,0,0-.82,3.45,9.09,9.09,0,0,0,.4,1.3s-.09-.09-.22-.29a3.66,3.66,0,0,1-.38-1,4.89,4.89,0,0,1,.72-3.7,6.67,6.67,0,0,1,4.85-2.73,14.28,14.28,0,0,1,6.76,1.21,44.8,44.8,0,0,0,6.38,2.26,17.46,17.46,0,0,0,5.47.3A26,26,0,0,0,566.21,151.9Z" style="fill:#455a64"></path><path d="M567.4,159.64c.06,0-.16.48-.76,1a4.94,4.94,0,0,1-5.84.5c-.68-.43-1-.84-.93-.88s.43.24,1.1.55a5.55,5.55,0,0,0,2.78.52,5.62,5.62,0,0,0,2.66-1C567,159.94,567.34,159.59,567.4,159.64Z" style="fill:#455a64"></path><path d="M566.21,157.06c.11.07-.37.9-1.39,1.42s-2,.44-2,.3.83-.29,1.72-.76S566.09,157,566.21,157.06Z" style="fill:#455a64"></path><path d="M535,159.86c-.06,0-.17-.25-.15-.69a2.69,2.69,0,0,1,.64-1.57,2.62,2.62,0,0,1,1.44-.87c.43-.09.7,0,.7,0s-1,.29-1.75,1.17S535.15,159.86,535,159.86Z" style="fill:#263238"></path><path d="M533.4,152.61a18.26,18.26,0,0,0,1.64,2.52,19,19,0,0,0,2.35,1.88,4.9,4.9,0,0,1-4-4.4Z" style="fill:#455a64"></path><path d="M580.64,285.57l-57.48-3.13c-.14-5.93,2.69-50.87,2.69-50.87l-3,5.58-15.45-13.78,13.5-18.25a26.77,26.77,0,0,1,17.89-10.58c2.09-.28,3.69-.42,4.72-.55a30.49,30.49,0,0,0,18.33,0h0a25.15,25.15,0,0,1,7.59,1.45,31.25,31.25,0,0,1,12.11,7.84h0l16.17,27.17-19.61,12.33-2.83-8.54Z" style="fill:#FF725E"></path><path d="M574.16,199.27a5.1,5.1,0,0,0-1.06.8,4.83,4.83,0,0,0-1.1,3.34c.12,3.1.48,7.43.87,12.18s.87,9,1.2,12.16c.16,1.48.29,2.72.39,3.69a6.05,6.05,0,0,1,.08,1.36,8,8,0,0,1-.28-1.34c-.15-.86-.34-2.11-.55-3.66-.43-3.11-1-7.41-1.36-12.17s-.69-9.07-.72-12.23a4.87,4.87,0,0,1,1.33-3.48,2.51,2.51,0,0,1,.86-.56A.77.77,0,0,1,574.16,199.27Z" style="fill:#263238"></path><path d="M526,210.67a21.16,21.16,0,0,1,.1,3.25c0,2-.05,4.78-.13,7.84s-.18,5.83-.28,7.84a21.37,21.37,0,0,1-.26,3.24,18.77,18.77,0,0,1-.11-3.25c0-2,0-4.78.13-7.84s.18-5.84.28-7.84A18.89,18.89,0,0,1,526,210.67Z" style="fill:#263238"></path><path d="M562.28,215.37a5.52,5.52,0,0,1-.93.88l-2.65,2.26c-2.24,1.92-5.3,4.59-8.59,7.65s-6.18,5.92-8.25,8l-2.45,2.48a7,7,0,0,1-.94.87,5.33,5.33,0,0,1,.79-1c.54-.63,1.33-1.51,2.34-2.59,2-2.17,4.86-5.08,8.15-8.14s6.41-5.71,8.71-7.55c1.15-.92,2.1-1.65,2.76-2.14A6,6,0,0,1,562.28,215.37Z" style="fill:#fafafa"></path><path d="M564.59,234.6a6,6,0,0,1-1.16-.45c-.74-.32-1.79-.82-3.08-1.45-2.59-1.26-6.1-3.13-9.86-5.38s-7.06-4.49-9.39-6.17c-1.17-.85-2.1-1.54-2.73-2.05a5.62,5.62,0,0,1-1-.81,5.2,5.2,0,0,1,1.07.65l2.82,1.9c2.38,1.61,5.69,3.78,9.44,6s7.23,4.16,9.76,5.5l3,1.6A5.5,5.5,0,0,1,564.59,234.6Z" style="fill:#fafafa"></path><path d="M451.09,199.77c2.58-4.63,1.43-10.74-1.91-14.84s-8.51-6.4-13.73-7.29c-3.21-.55-6.5-.63-9.65-1.46s-6.26-2.58-7.71-5.49a15.55,15.55,0,0,0,1.45,10.5,14.64,14.64,0,0,1-5.12-2.14c0,6.49,1.63,13.1,5.42,18.36s9.93,9,16.42,9.08,13.05-4,15.18-10.08" style="fill:#455a64"></path><path d="M414.42,176.5c-.26,3.14.14,9.23,1.34,12.14a8.35,8.35,0,0,0,1.93,3,3.91,3.91,0,0,0,3.32,1.08c1.87-.38,3.09-2.42,5-2.67,2.26-.31,4.1,2.07,6.37,2.14,1.86.05,3.43-1.51,4.11-3.24a23.16,23.16,0,0,0,1-5.46,7.62,7.62,0,0,1,2.26-4.95,53.51,53.51,0,0,0-12.07-2.88c-6.86-.83-9.61-7-9.61-7s-2,7.41,1.52,12.49Z" style="fill:#FF725E"></path><path d="M449.2,214,605.12,328A10,10,0,0,0,619,325.9h0a10,10,0,0,0-2.12-14L460.34,198.17Z" style="fill:#263238"></path><path d="M595.51,231.84l-16,10.06,2.59,6.8-35.8,14.73-9.8.45-7.23-1.34s-.64.84.58,2.13a10.27,10.27,0,0,0,3.8,1.79l-5.4,4.89,7,8.89,24-5.8c13.29-2.26,44.94-8.6,45.06-17.84C604.43,248.26,595.51,231.84,595.51,231.84Z" style="fill:#ffbe9d"></path><path d="M467.08,215.48c.37-1.09,1.27-1.87,2.25-1.36h0a1.75,1.75,0,0,1,.32,1.69L466.52,226h0l3-7.22c.37-1.09,1.36-1.75,2-1.16a1.79,1.79,0,0,1,.24,1.66l-2.7,8.47,2.2-5.3c.46-1.2,1-1.53,1.62-1.26s.63,1.16.48,1.63l-1.87,6.26c.4,1.2,1.78,5,.46,7.11-.07.11.13.46.12.57l.63.73-4.07,3.84c-2.1-1.87-4.05-9.73-4.66-12.71a9.52,9.52,0,0,1,.23-5.1Z" style="fill:#ffbe9d"></path><polygon points="460.34 198.17 451.96 191.54 441.01 207.54 449.2 213.96 460.34 198.17" style="fill:#f5f5f5"></polygon></g><g id="freepik--character-1--inject-82"><path d="M318.88,168.06l-4.05-11.89.41-6.73,5.22,5.13,7.86,22.13a2.82,2.82,0,0,1-1.83,3.64h0a2.84,2.84,0,0,1-3.46-1.67Z" style="fill:#455a64"></path><path d="M325.84,177.43a24.7,24.7,0,0,1-1.32-3.2c-.79-2.14-1.79-4.84-2.9-7.82s-2.08-5.69-2.87-7.83c-.35-.91-.65-1.69-.9-2.36a3.87,3.87,0,0,1-.33-.87,12.17,12.17,0,0,1,1.57,3.09c.84,2,1.9,4.73,3,7.79s2.09,5.85,2.76,7.88A21.4,21.4,0,0,1,325.84,177.43Z" style="fill:#263238"></path><polygon points="315.24 149.44 314.98 153.74 318.29 152.44 315.24 149.44" style="fill:#263238"></polygon><path d="M320.21,154.51a15.4,15.4,0,0,1-5.39,1.68,8,8,0,0,1,2.62-1.09A8.18,8.18,0,0,1,320.21,154.51Z" style="fill:#263238"></path><path d="M327.44,169.13l1-3.51a1.48,1.48,0,0,0-1.11-1.86l-3.79-.83a1.67,1.67,0,0,0-.25,1.55c.38.69,3,1.34,3,1.34l-.31,3.54Z" style="fill:#aa6550"></path><path d="M241.62,220.21h0a9,9,0,0,0,9.67-8.63c.19-4.89.36-9.84.36-9.84s7.42-.7,8-8,.29-24.3.29-24.3h0A25.6,25.6,0,0,0,234,171.06l-1.14.78.41,39.5A9,9,0,0,0,241.62,220.21Z" style="fill:#ffbe9d"></path><polygon points="254.67 354.1 276.65 455.46 293.23 455.07 278.79 358.14 254.67 354.1" style="fill:#b78876"></polygon><polygon points="214.09 350.67 208.75 449.65 225.07 453.59 237.31 352.76 214.09 350.67" style="fill:#b78876"></polygon><polygon points="281.15 358.36 272.19 282.17 219.34 281.19 213.16 352.09 281.15 358.36" style="fill:#263238"></polygon><path d="M264.31,301.27c0,.14-8.52,1.27-19.07,2.52s-19.11,2.15-19.13,2,8.52-1.27,19.07-2.52S264.3,301.13,264.31,301.27Z" style="fill:#455a64"></path><path d="M295.49,456.77l-.07-1.85-18.77.54.16,6.11,1.16,0c5.17.13,26.28.31,29.7-.75C311.48,459.67,295.49,456.77,295.49,456.77Z" style="fill:#FF725E"></path><g style="opacity:0.6000000000000001"><path d="M283.58,461.25a6,6,0,0,0-2.5-3.64,6.62,6.62,0,0,0-4.4-1.14l.14,4.85Z" style="fill:#fff"></path></g><g style="opacity:0.6000000000000001"><path d="M303.31,458.44s5.62,1.35,4.95,2.22-22,1.43-31.45.91l0-.39,24.9-.45S302.23,458.52,303.31,458.44Z" style="fill:#fff"></path></g><path d="M276.54,461.18l.32,0,.92,0,3.4,0c2.88,0,6.84,0,11.23-.11s8.34-.3,11.21-.47l3.39-.22.92-.07.33,0h-.33l-.92,0-3.4.15c-2.87.13-6.83.29-11.21.41s-8.34.15-11.22.17l-3.4,0h-.92Z" style="fill:#263238"></path><path d="M301.73,461a6.79,6.79,0,0,1,.59-1.53,7.59,7.59,0,0,1,1.12-1.24,2.55,2.55,0,0,0-1.32,1.14A2.23,2.23,0,0,0,301.73,461Z" style="fill:#263238"></path><path d="M296.14,458.54c.05,0,.31-.28.57-.68s.42-.76.37-.79-.31.27-.57.68S296.08,458.51,296.14,458.54Z" style="fill:#263238"></path><path d="M294.6,457.83c0,.05.33-.14.65-.42s.53-.54.49-.58-.33.15-.65.43S294.56,457.79,294.6,457.83Z" style="fill:#263238"></path><path d="M293.59,456.22a2.33,2.33,0,0,0,1,.09,2.39,2.39,0,0,0,1-.12,2.3,2.3,0,0,0-1-.09A2.39,2.39,0,0,0,293.59,456.22Z" style="fill:#263238"></path><path d="M293.23,455.07a2,2,0,0,0,1.1.27,2.08,2.08,0,0,0,1.12-.17,6.77,6.77,0,0,0-1.11,0A6,6,0,0,0,293.23,455.07Z" style="fill:#263238"></path><path d="M296.73,457a4,4,0,0,0,1.2,0,7.61,7.61,0,0,0,1.27-.3,3.57,3.57,0,0,0,.72-.3.57.57,0,0,0,.29-.35.42.42,0,0,0-.2-.44,2.28,2.28,0,0,0-2.7.67,1.77,1.77,0,0,0-.37.75c-.05.19,0,.3,0,.3a2.88,2.88,0,0,1,.51-1,2.27,2.27,0,0,1,1-.65,2,2,0,0,1,1.43.05c.2.13.13.34-.08.46a3,3,0,0,1-.66.29,8.48,8.48,0,0,1-1.23.33C297.18,457,296.72,457,296.73,457Z" style="fill:#263238"></path><path d="M297,457.05s.18-.27.11-.78a1.68,1.68,0,0,0-.35-.8,1.24,1.24,0,0,0-1-.55.45.45,0,0,0-.35.53,1.23,1.23,0,0,0,.22.49,3,3,0,0,0,.59.66,1.64,1.64,0,0,0,.7.44s-.25-.2-.59-.54a3.37,3.37,0,0,1-.52-.66c-.18-.23-.3-.65,0-.71a1.12,1.12,0,0,1,.8.45,1.9,1.9,0,0,1,.37.72A4.17,4.17,0,0,1,297,457.05Z" style="fill:#263238"></path><path d="M276.77,456.41s.54-.06,1.38,0a6.4,6.4,0,0,1,3.05,1.08,5.6,5.6,0,0,1,2,2.42c.31.74.35,1.24.39,1.23s0-.12,0-.35a4,4,0,0,0-.23-.93,5.43,5.43,0,0,0-2-2.54,6.13,6.13,0,0,0-3.17-1.06,5.66,5.66,0,0,0-1,.06A1.2,1.2,0,0,0,276.77,456.41Z" style="fill:#263238"></path><path d="M285.89,459.5a11.47,11.47,0,0,0,2.73.18,11.22,11.22,0,0,0,2.73-.28c0-.06-1.23,0-2.73.07S285.89,459.44,285.89,459.5Z" style="fill:#263238"></path><path d="M282.22,459.59s.11.24.24.49.21.49.27.48.09-.27-.06-.57S282.26,459.55,282.22,459.59Z" style="fill:#263238"></path><path d="M280.79,458s.09.22.28.39.4.29.44.25-.08-.22-.28-.4S280.84,458,280.79,458Z" style="fill:#263238"></path><path d="M278.79,457.35c0,.06.27,0,.55.13s.47.22.52.17-.11-.27-.46-.37S278.77,457.3,278.79,457.35Z" style="fill:#263238"></path><path d="M277.38,457c0,.06.09.14.24.19s.3,0,.33,0-.09-.14-.25-.19S277.4,457,277.38,457Z" style="fill:#263238"></path><polygon points="208.27 448.8 205.49 461.03 224.27 461.03 225.07 453.07 208.27 448.8" style="fill:#FF725E"></polygon><path d="M224.65,459.25a13.22,13.22,0,0,1-2.73.16c-1.69,0-4,0-6.6-.12l-6.59-.28a15.68,15.68,0,0,1-2.73-.22,13,13,0,0,1,2.74-.15c1.69,0,4,0,6.6.13l6.59.27A16.41,16.41,0,0,1,224.65,459.25Z" style="fill:#263238"></path><path d="M216.7,451.19a30.61,30.61,0,0,1-.53,7.88,15.06,15.06,0,0,1,0-4A14.84,14.84,0,0,1,216.7,451.19Z" style="fill:#263238"></path><polyline points="205.49 461.03 224.27 461.03 224.45 459.25 205.83 458.79 205.49 460.82" style="fill:#fff;opacity:0.6000000000000001"></polyline><path d="M327.88,165.32l-9,3.36c-.1-2.75-2-5.6-2-4.23s-.65,8.45-.65,8.45L302,197.76c-2,4-5.57,6.26-8.14,6.67l-11.72,2.51,3.3,15.49,16.32-4a13.78,13.78,0,0,0,9.41-8.07l13.58-32.56a50.64,50.64,0,0,0,2.29-6.45A38.67,38.67,0,0,0,327.88,165.32Z" style="fill:#b78876"></path><path d="M201.21,242.06s13.6-27.76,14.65-28.62c6.5-5.33,14.8-4.8,14.8-4.8l22.7.19s17.87-2.24,28.28-4l4.55,21.37-20,4.82-1.89,24.21,4.43,18.47a51,51,0,0,1,2.49,6.78l.61,2.15-52.58.54c-.17-6.14,6.85-21.36,6.85-21.36l-3.83-23.89-1.88,9.13Z" style="fill:#455a64"></path><path d="M265.37,236.94a6.07,6.07,0,0,0-2.77,0,9.34,9.34,0,0,0-3,1.35,39.45,39.45,0,0,0-3.41,2.73,11,11,0,0,1-4.7,2.56,10.75,10.75,0,0,1-6.11-.61,19,19,0,0,1-5.77-3.59c-1.78-1.54-3.44-3.32-5.23-5a23.43,23.43,0,0,0-5.77-4.2,19.6,19.6,0,0,0-6.34-1.92,19.39,19.39,0,0,0-11,1.79,20.7,20.7,0,0,0-6.1,4.53c-.61.67-1.05,1.22-1.34,1.6a5,5,0,0,1-.46.57,3.09,3.09,0,0,1,.37-.63,16.87,16.87,0,0,1,1.28-1.67,20,20,0,0,1,6.08-4.73,19.56,19.56,0,0,1,11.21-1.93,19.88,19.88,0,0,1,6.51,1.93,23.93,23.93,0,0,1,5.9,4.28c1.81,1.71,3.46,3.48,5.21,5a18.52,18.52,0,0,0,5.6,3.52,10.34,10.34,0,0,0,5.85.64,10.7,10.7,0,0,0,4.56-2.42,38.65,38.65,0,0,1,3.48-2.7,9.38,9.38,0,0,1,3.07-1.3,5.12,5.12,0,0,1,2.11,0A2.51,2.51,0,0,1,265.37,236.94Z" style="fill:#fafafa"></path><path d="M264.39,259c0,.06-.61.06-1.65.3a14.66,14.66,0,0,0-4.15,1.85c-1.65,1-3.44,2.46-5.62,3.86a20.64,20.64,0,0,1-7.85,3,23.14,23.14,0,0,1-8.39-.24,21.88,21.88,0,0,1-6.41-2.46,22.73,22.73,0,0,1-2.2-1.45c-.6-.51-1.11-.93-1.51-1.31a9.48,9.48,0,0,1-1.13-1.25,27.4,27.4,0,0,0,5,3.69,22.58,22.58,0,0,0,6.32,2.31,23.17,23.17,0,0,0,8.22.19,20.93,20.93,0,0,0,7.68-2.87c2.15-1.36,4-2.8,5.68-3.77a13.53,13.53,0,0,1,4.29-1.74A8,8,0,0,1,264,259,1.15,1.15,0,0,1,264.39,259Z" style="fill:#fafafa"></path><path d="M272,211.94a4.7,4.7,0,0,1,1.88-.53,11.41,11.41,0,0,1,4.7.38,11.26,11.26,0,0,1,4.14,2.24A4.74,4.74,0,0,1,284,215.5a14.76,14.76,0,0,1-1.52-1.18,13.2,13.2,0,0,0-4.06-2,13.34,13.34,0,0,0-4.52-.51A15.35,15.35,0,0,1,272,211.94Z" style="fill:#fafafa"></path><path d="M239.21,281.2a24,24,0,0,0,4.19-1,28.74,28.74,0,0,0,4.23-2l5-2.93a27.49,27.49,0,0,1,5.32-2.39,18.33,18.33,0,0,1,4.7-.77,18.05,18.05,0,0,1,3.21.2,4.51,4.51,0,0,1,1.14.28,38.69,38.69,0,0,0-4.33-.11,19.66,19.66,0,0,0-4.58.86,29.37,29.37,0,0,0-5.21,2.38c-1.78,1-3.44,2-5,2.9a25.9,25.9,0,0,1-4.34,1.95,16.52,16.52,0,0,1-1.77.48c-.53.09-1,.16-1.37.2A5.82,5.82,0,0,1,239.21,281.2Z" style="fill:#fafafa"></path><path d="M327.88,165.32v-2.25a1.38,1.38,0,0,0-.94-1.3l-4.22-1.45a1.62,1.62,0,0,0-.25,1.54c.38.7,2.95,1.35,2.95,1.35l-.31,3.53Z" style="fill:#b78876"></path><path d="M203.48,242.65s-8,14.63-2.27,20.19c5.4,5.25,24.47-3.73,24.47-3.73l-1.9-11.84-9.55,3.41,2.2-4.66Z" style="fill:#b78876"></path><path d="M256.87,162.52c13.1,2.44,6.48,19.31,9.31,24.86,1.05,2,2.94,3.68,4.41,5.53s2.54,4.2,1.64,6.3c-.77,1.82-2.94,3.32-2.61,5.24a7.28,7.28,0,0,0,1.66,2.7,7.89,7.89,0,0,1,.88,7.3,14.12,14.12,0,0,1-4.87,6.21c-6.39,5-16.23,6.46-24.25,3.68-2.37-.82-4.79-2-7.32-1.65a23.32,23.32,0,0,0-4.37,1.52c-5.67,2-12.69-.87-15.3-5.56s-1.17-10.57,2.72-14.58c2.78-2.88,6.92-5.35,7.2-9.06s-3.46-7.32-1.76-10.68c1.1-2.17,4.14-3.29,5.23-5.47s-.2-4.83-.27-7.3c-.1-3.33,2.16-6.38,4.7-8.92,3.19-3.2,7.29-6.11,12.2-6.62s10.48,2.31,10.8,6.5" style="fill:#263238"></path><path d="M249.9,226.1a11.42,11.42,0,0,0,2.89-.59,8.85,8.85,0,0,0,2.92-1.81,8.31,8.31,0,0,0,2.3-3.85,8.5,8.5,0,0,0-.29-5.4c-.33-.94-.76-1.89-1.16-2.9a9.94,9.94,0,0,1-.81-3.28,5.24,5.24,0,0,1,1.07-3.42,13.47,13.47,0,0,1,2.67-2.55,16.18,16.18,0,0,0,2.73-2.5,4.5,4.5,0,0,0,1.16-3.38,6.64,6.64,0,0,0-1.65-3.29c-.8-1-1.67-1.9-2.39-2.94a6.76,6.76,0,0,1-1.3-3.49,10.3,10.3,0,0,1,.48-3.53c.67-2.2,1.53-4.17,2-6.13a16.44,16.44,0,0,0,.54-5.5,9.52,9.52,0,0,0-3.62-6.88,8.55,8.55,0,0,0-2.66-1.25l.19,0a3.89,3.89,0,0,1,.57.11,6.63,6.63,0,0,1,2,1,9.65,9.65,0,0,1,3.88,7,16.89,16.89,0,0,1-.49,5.64c-.44,2-1.31,4-1.94,6.15a10,10,0,0,0-.45,3.36,6.32,6.32,0,0,0,1.23,3.24c.69,1,1.56,1.9,2.37,2.9a7.19,7.19,0,0,1,1.77,3.56,5.09,5.09,0,0,1-1.27,3.77,16.62,16.62,0,0,1-2.83,2.57,12.84,12.84,0,0,0-2.58,2.45,4.79,4.79,0,0,0-1,3.1c.1,2.21,1.27,4.13,1.9,6.06a8.86,8.86,0,0,1,.23,5.64,8.42,8.42,0,0,1-2.45,4,8.82,8.82,0,0,1-3,1.79,8.24,8.24,0,0,1-2.18.42,3.64,3.64,0,0,1-.58,0C250,226.12,249.9,226.11,249.9,226.1Z" style="fill:#455a64"></path><path d="M229.89,177a8.14,8.14,0,0,1-.13-1.52,26.44,26.44,0,0,1,.19-4.16,14.35,14.35,0,0,1,2-5.86,15.36,15.36,0,0,1,5.62-5.08c4.8-2.59,10.2-2.53,13.39-.93a6.74,6.74,0,0,1,3.1,2.79,3.72,3.72,0,0,1,.4,1.07c.06.25.08.39.06.39s-.14-.53-.64-1.36a6.76,6.76,0,0,0-3.07-2.56c-3.1-1.46-8.34-1.45-13,1.06a15,15,0,0,0-5.46,4.88,14.43,14.43,0,0,0-2.07,5.65,31.12,31.12,0,0,0-.34,4.11A9.8,9.8,0,0,1,229.89,177Z" style="fill:#455a64"></path><path d="M252.05,166.21a5.79,5.79,0,0,0-2.57,0,7.46,7.46,0,0,0-4.81,4.76,15.76,15.76,0,0,0-.8,4.8c-.07,1.77,0,3.67-.05,5.69a13.71,13.71,0,0,1-1.51,6.15c-1.09,2-3.19,3.26-4,5.33a5.6,5.6,0,0,0-.1,3.22c.24,1.07.62,2.11.94,3.16a9.94,9.94,0,0,1,.51,3.24,7.39,7.39,0,0,1-.87,3,37.49,37.49,0,0,1-3.28,4.67,10.31,10.31,0,0,0-2.09,4.33,7.2,7.2,0,0,0,.48,3.91,15.6,15.6,0,0,0,1.43,2.71c.45.71.83,1.24,1.09,1.61a4.31,4.31,0,0,1,.37.57,2.53,2.53,0,0,1-.46-.51c-.28-.35-.69-.86-1.17-1.56a14.06,14.06,0,0,1-1.52-2.71,7.31,7.31,0,0,1-.59-4.07,10.67,10.67,0,0,1,2.11-4.53,39.85,39.85,0,0,0,3.2-4.64,6.94,6.94,0,0,0,.8-2.84,9.21,9.21,0,0,0-.5-3.06c-.31-1-.71-2.08-1-3.2a6.05,6.05,0,0,1,.13-3.52,9.34,9.34,0,0,1,2-2.86,13.66,13.66,0,0,0,2-2.53,13.27,13.27,0,0,0,1.48-5.93c.11-2,0-3.88.1-5.67a16,16,0,0,1,.88-4.92,7.58,7.58,0,0,1,5.11-4.82,4.77,4.77,0,0,1,2-.06,3,3,0,0,1,.49.13C252,166.18,252.05,166.2,252.05,166.21Z" style="fill:#455a64"></path><polygon points="214.01 352.17 213.91 354.1 236.38 360.45 237.12 354.3 214.01 352.17" style="fill:#aa6550"></polygon><polygon points="255.15 356.31 255.81 359.32 279.56 363.29 278.79 358.14 255.15 356.31" style="fill:#aa6550"></polygon></g></svg>