<svg width="146" height="146" viewBox="0 0 146 146" fill="none" xmlns="http://www.w3.org/2000/svg">
<path d="M38.6289 54.7397C23.3525 54.7397 10.1325 63.0667 3.97436 75.0847C1.94382 79.0486 0.682317 83.4116 0.36731 88.0112V145.729C15.5232 145.729 28.616 137.539 34.78 125.668C36.0452 125.785 37.3311 125.845 38.6289 125.845C59.7721 125.845 76.9725 109.895 76.9725 90.2925C76.9725 70.6867 59.7721 54.7397 38.6289 54.7397ZM38.6289 112.005C38.5845 112.005 38.5409 112.005 38.4965 112.002C38.5261 111.448 38.5409 110.889 38.5409 110.33C38.5409 96.8736 30.4439 85.169 18.5216 79.1803C22.6145 72.837 30.0963 68.581 38.6296 68.581C51.5405 68.581 62.0444 78.3211 62.0444 90.2931C62.0444 102.265 51.5397 112.005 38.6289 112.005Z" fill="white"/>
<path d="M56.81 49.9315C65.5605 53.0465 76.7334 45.7187 81.7652 33.5645C86.7969 21.4102 83.7823 9.03204 75.0317 5.91706C66.2811 2.80207 55.1083 10.1298 50.0765 22.2841C45.0447 34.4383 48.0594 46.8165 56.81 49.9315Z" fill="white"/>
<path d="M80.1285 71.0911C85.5979 80.6284 102.521 82.2015 117.927 74.6048C133.332 67.0081 141.388 53.1183 135.918 43.581C130.449 34.0438 113.526 32.4706 98.1203 40.0673C82.7143 47.664 74.6592 61.5538 80.1285 71.0911Z" fill="white"/>
<path d="M84.0937 101.045C81.9356 109.711 91.5345 119.167 105.533 122.164C119.532 125.161 132.63 120.566 134.788 111.9C136.946 103.233 127.347 93.7781 113.349 90.7806C99.3496 87.7832 86.2517 92.3786 84.0937 101.045Z" fill="white"/>
</svg>
